<mxfile host="app.diagrams.net" modified="2023-09-21T10:14:49.382Z" agent="Mozilla/5.0 (Windows NT 10.0; Win64; x64) AppleWebKit/537.36 (KHTML, like Gecko) Chrome/116.0.0.0 Safari/537.36" etag="zBzki2dhhanspcru11Gq" version="21.8.0" type="github">
  <diagram name="Page-1" id="b98fa263-6416-c6ec-5b7d-78bf54ef71d0">
    <mxGraphModel dx="3071.5" dy="4242" grid="1" gridSize="10" guides="1" tooltips="1" connect="1" arrows="1" fold="1" page="1" pageScale="1.5" pageWidth="1169" pageHeight="826" background="none" math="0" shadow="0">
      <root>
        <mxCell id="0" style=";html=1;" />
        <mxCell id="1" style=";html=1;" parent="0" />
        <mxCell id="kgQNQLbI_HPiewj2uFAK-174" style="edgeStyle=orthogonalEdgeStyle;rounded=0;orthogonalLoop=1;jettySize=auto;html=1;exitX=0.5;exitY=0;exitDx=0;exitDy=0;entryX=0.5;entryY=1;entryDx=0;entryDy=0;" parent="1" source="303ed1de8c2c98b4-4" target="mxKlV8JhnhSBez3Am2Ye-2" edge="1">
          <mxGeometry relative="1" as="geometry" />
        </mxCell>
        <mxCell id="mxKlV8JhnhSBez3Am2Ye-4" style="edgeStyle=orthogonalEdgeStyle;rounded=0;orthogonalLoop=1;jettySize=auto;html=1;exitX=0.5;exitY=1;exitDx=0;exitDy=0;" edge="1" parent="1" source="303ed1de8c2c98b4-4" target="cXpkJefbk4sWb7GXNzCY-208">
          <mxGeometry relative="1" as="geometry" />
        </mxCell>
        <mxCell id="303ed1de8c2c98b4-4" value="Thể thao tương tác" style="whiteSpace=wrap;html=1;rounded=1;shadow=1;strokeWidth=1;fontSize=16;align=center;fillColor=#f5f5f5;strokeColor=#666666;" parent="1" vertex="1">
          <mxGeometry x="1268.25" y="220" width="223.5" height="120" as="geometry" />
        </mxCell>
        <mxCell id="kgQNQLbI_HPiewj2uFAK-117" style="edgeStyle=orthogonalEdgeStyle;rounded=0;orthogonalLoop=1;jettySize=auto;html=1;exitX=1;exitY=0.5;exitDx=0;exitDy=0;entryX=0;entryY=0.5;entryDx=0;entryDy=0;" parent="1" source="kgQNQLbI_HPiewj2uFAK-74" target="kgQNQLbI_HPiewj2uFAK-116" edge="1">
          <mxGeometry relative="1" as="geometry" />
        </mxCell>
        <mxCell id="kgQNQLbI_HPiewj2uFAK-175" style="edgeStyle=orthogonalEdgeStyle;rounded=0;orthogonalLoop=1;jettySize=auto;html=1;exitX=0.5;exitY=0;exitDx=0;exitDy=0;entryX=0.5;entryY=1;entryDx=0;entryDy=0;" parent="1" source="kgQNQLbI_HPiewj2uFAK-74" target="kgQNQLbI_HPiewj2uFAK-75" edge="1">
          <mxGeometry relative="1" as="geometry" />
        </mxCell>
        <mxCell id="kgQNQLbI_HPiewj2uFAK-74" value="Player" style="whiteSpace=wrap;html=1;rounded=1;shadow=1;strokeWidth=1;fontSize=16;align=center;fillColor=#f5f5f5;strokeColor=#666666;" parent="1" vertex="1">
          <mxGeometry x="1280" y="-60" width="200" height="40" as="geometry" />
        </mxCell>
        <mxCell id="kgQNQLbI_HPiewj2uFAK-100" style="edgeStyle=orthogonalEdgeStyle;rounded=0;orthogonalLoop=1;jettySize=auto;html=1;exitX=0.75;exitY=0;exitDx=0;exitDy=0;entryX=0;entryY=0.5;entryDx=0;entryDy=0;" parent="1" source="kgQNQLbI_HPiewj2uFAK-75" target="kgQNQLbI_HPiewj2uFAK-78" edge="1">
          <mxGeometry relative="1" as="geometry" />
        </mxCell>
        <mxCell id="kgQNQLbI_HPiewj2uFAK-101" style="edgeStyle=orthogonalEdgeStyle;rounded=0;orthogonalLoop=1;jettySize=auto;html=1;exitX=1;exitY=0.5;exitDx=0;exitDy=0;entryX=0;entryY=0.5;entryDx=0;entryDy=0;" parent="1" source="kgQNQLbI_HPiewj2uFAK-75" target="kgQNQLbI_HPiewj2uFAK-79" edge="1">
          <mxGeometry relative="1" as="geometry" />
        </mxCell>
        <mxCell id="kgQNQLbI_HPiewj2uFAK-102" style="edgeStyle=orthogonalEdgeStyle;rounded=0;orthogonalLoop=1;jettySize=auto;html=1;exitX=0.75;exitY=1;exitDx=0;exitDy=0;entryX=0;entryY=0.5;entryDx=0;entryDy=0;" parent="1" source="kgQNQLbI_HPiewj2uFAK-75" target="kgQNQLbI_HPiewj2uFAK-82" edge="1">
          <mxGeometry relative="1" as="geometry" />
        </mxCell>
        <mxCell id="kgQNQLbI_HPiewj2uFAK-176" style="edgeStyle=orthogonalEdgeStyle;rounded=0;orthogonalLoop=1;jettySize=auto;html=1;exitX=0.5;exitY=0;exitDx=0;exitDy=0;entryX=0.5;entryY=1;entryDx=0;entryDy=0;" parent="1" source="kgQNQLbI_HPiewj2uFAK-75" target="kgQNQLbI_HPiewj2uFAK-112" edge="1">
          <mxGeometry relative="1" as="geometry" />
        </mxCell>
        <mxCell id="kgQNQLbI_HPiewj2uFAK-75" value="Button &quot;Dữ liệu&quot;" style="whiteSpace=wrap;html=1;rounded=1;shadow=1;strokeWidth=1;fontSize=16;align=center;fillColor=#f5f5f5;strokeColor=#666666;" parent="1" vertex="1">
          <mxGeometry x="1280" y="-280" width="200" height="40" as="geometry" />
        </mxCell>
        <mxCell id="kgQNQLbI_HPiewj2uFAK-78" value="Label &quot;Mới&quot;" style="whiteSpace=wrap;html=1;rounded=1;shadow=1;strokeWidth=1;fontSize=16;align=center;fillColor=#f5f5f5;strokeColor=#666666;" parent="1" vertex="1">
          <mxGeometry x="1580" y="-480" width="125" height="80" as="geometry" />
        </mxCell>
        <mxCell id="kgQNQLbI_HPiewj2uFAK-79" value="Focus" style="whiteSpace=wrap;html=1;rounded=1;shadow=1;strokeWidth=1;fontSize=16;align=center;fillColor=#f5f5f5;strokeColor=#666666;" parent="1" vertex="1">
          <mxGeometry x="1580" y="-360" width="125" height="80" as="geometry" />
        </mxCell>
        <mxCell id="cXpkJefbk4sWb7GXNzCY-116" style="edgeStyle=orthogonalEdgeStyle;rounded=0;orthogonalLoop=1;jettySize=auto;html=1;exitX=0.5;exitY=0;exitDx=0;exitDy=0;entryX=0.5;entryY=1;entryDx=0;entryDy=0;" parent="1" source="kgQNQLbI_HPiewj2uFAK-80" target="cXpkJefbk4sWb7GXNzCY-113" edge="1">
          <mxGeometry relative="1" as="geometry" />
        </mxCell>
        <mxCell id="cXpkJefbk4sWb7GXNzCY-458" style="edgeStyle=orthogonalEdgeStyle;rounded=0;orthogonalLoop=1;jettySize=auto;html=1;exitX=1;exitY=0.5;exitDx=0;exitDy=0;entryX=0;entryY=0.5;entryDx=0;entryDy=0;" parent="1" source="kgQNQLbI_HPiewj2uFAK-80" target="kgQNQLbI_HPiewj2uFAK-114" edge="1">
          <mxGeometry relative="1" as="geometry" />
        </mxCell>
        <mxCell id="cXpkJefbk4sWb7GXNzCY-460" style="edgeStyle=orthogonalEdgeStyle;rounded=0;orthogonalLoop=1;jettySize=auto;html=1;exitX=1;exitY=0.75;exitDx=0;exitDy=0;entryX=0;entryY=0.5;entryDx=0;entryDy=0;" parent="1" source="kgQNQLbI_HPiewj2uFAK-80" target="kgQNQLbI_HPiewj2uFAK-105" edge="1">
          <mxGeometry relative="1" as="geometry" />
        </mxCell>
        <mxCell id="kgQNQLbI_HPiewj2uFAK-80" value="Thông số" style="whiteSpace=wrap;html=1;rounded=1;shadow=1;strokeWidth=1;fontSize=16;align=center;fillColor=#f5f5f5;strokeColor=#666666;" parent="1" vertex="1">
          <mxGeometry x="1560" y="-600" width="200" height="40" as="geometry" />
        </mxCell>
        <mxCell id="kgQNQLbI_HPiewj2uFAK-82" value="Tips lần đầu dùng" style="whiteSpace=wrap;html=1;rounded=1;shadow=1;strokeWidth=1;fontSize=16;align=center;fillColor=#f5f5f5;strokeColor=#666666;" parent="1" vertex="1">
          <mxGeometry x="1580" y="-230" width="125" height="80" as="geometry" />
        </mxCell>
        <mxCell id="kgQNQLbI_HPiewj2uFAK-105" value="Vị trí focus" style="whiteSpace=wrap;html=1;rounded=1;shadow=1;strokeWidth=1;fontSize=16;align=center;fillColor=#f5f5f5;strokeColor=#666666;" parent="1" vertex="1">
          <mxGeometry x="2001" y="-470" width="125" height="41" as="geometry" />
        </mxCell>
        <mxCell id="kgQNQLbI_HPiewj2uFAK-109" style="edgeStyle=orthogonalEdgeStyle;rounded=0;orthogonalLoop=1;jettySize=auto;html=1;exitX=0.5;exitY=1;exitDx=0;exitDy=0;" parent="1" source="kgQNQLbI_HPiewj2uFAK-105" target="kgQNQLbI_HPiewj2uFAK-105" edge="1">
          <mxGeometry relative="1" as="geometry" />
        </mxCell>
        <mxCell id="cXpkJefbk4sWb7GXNzCY-480" style="edgeStyle=orthogonalEdgeStyle;rounded=0;orthogonalLoop=1;jettySize=auto;html=1;exitX=1;exitY=0;exitDx=0;exitDy=0;entryX=0;entryY=0.5;entryDx=0;entryDy=0;" parent="1" source="kgQNQLbI_HPiewj2uFAK-110" target="kgQNQLbI_HPiewj2uFAK-128" edge="1">
          <mxGeometry relative="1" as="geometry" />
        </mxCell>
        <mxCell id="cXpkJefbk4sWb7GXNzCY-481" style="edgeStyle=orthogonalEdgeStyle;rounded=0;orthogonalLoop=1;jettySize=auto;html=1;exitX=1;exitY=0.25;exitDx=0;exitDy=0;entryX=0;entryY=0.5;entryDx=0;entryDy=0;" parent="1" source="kgQNQLbI_HPiewj2uFAK-110" target="kgQNQLbI_HPiewj2uFAK-127" edge="1">
          <mxGeometry relative="1" as="geometry" />
        </mxCell>
        <mxCell id="cXpkJefbk4sWb7GXNzCY-482" style="edgeStyle=orthogonalEdgeStyle;rounded=0;orthogonalLoop=1;jettySize=auto;html=1;exitX=1;exitY=0.5;exitDx=0;exitDy=0;entryX=0;entryY=0.5;entryDx=0;entryDy=0;" parent="1" source="kgQNQLbI_HPiewj2uFAK-110" target="kgQNQLbI_HPiewj2uFAK-126" edge="1">
          <mxGeometry relative="1" as="geometry" />
        </mxCell>
        <mxCell id="cXpkJefbk4sWb7GXNzCY-483" style="edgeStyle=orthogonalEdgeStyle;rounded=0;orthogonalLoop=1;jettySize=auto;html=1;exitX=1;exitY=0.75;exitDx=0;exitDy=0;entryX=0;entryY=0.5;entryDx=0;entryDy=0;" parent="1" source="kgQNQLbI_HPiewj2uFAK-110" target="kgQNQLbI_HPiewj2uFAK-124" edge="1">
          <mxGeometry relative="1" as="geometry" />
        </mxCell>
        <mxCell id="cXpkJefbk4sWb7GXNzCY-484" style="edgeStyle=orthogonalEdgeStyle;rounded=0;orthogonalLoop=1;jettySize=auto;html=1;exitX=1;exitY=1;exitDx=0;exitDy=0;entryX=0;entryY=0.5;entryDx=0;entryDy=0;" parent="1" source="kgQNQLbI_HPiewj2uFAK-110" target="kgQNQLbI_HPiewj2uFAK-125" edge="1">
          <mxGeometry relative="1" as="geometry" />
        </mxCell>
        <mxCell id="kgQNQLbI_HPiewj2uFAK-110" value="Scoreboard" style="whiteSpace=wrap;html=1;rounded=1;shadow=1;strokeWidth=1;fontSize=16;align=center;fillColor=#f5f5f5;strokeColor=#666666;" parent="1" vertex="1">
          <mxGeometry x="2001" y="-1751" width="125" height="80" as="geometry" />
        </mxCell>
        <mxCell id="kgQNQLbI_HPiewj2uFAK-121" style="edgeStyle=orthogonalEdgeStyle;rounded=0;orthogonalLoop=1;jettySize=auto;html=1;exitX=0.75;exitY=1;exitDx=0;exitDy=0;entryX=0;entryY=0.5;entryDx=0;entryDy=0;" parent="1" source="kgQNQLbI_HPiewj2uFAK-112" target="kgQNQLbI_HPiewj2uFAK-80" edge="1">
          <mxGeometry relative="1" as="geometry" />
        </mxCell>
        <mxCell id="cXpkJefbk4sWb7GXNzCY-145" style="edgeStyle=orthogonalEdgeStyle;rounded=0;orthogonalLoop=1;jettySize=auto;html=1;exitX=0.75;exitY=0;exitDx=0;exitDy=0;entryX=0;entryY=0.5;entryDx=0;entryDy=0;" parent="1" source="kgQNQLbI_HPiewj2uFAK-112" target="cXpkJefbk4sWb7GXNzCY-72" edge="1">
          <mxGeometry relative="1" as="geometry" />
        </mxCell>
        <mxCell id="cXpkJefbk4sWb7GXNzCY-403" style="edgeStyle=orthogonalEdgeStyle;rounded=0;orthogonalLoop=1;jettySize=auto;html=1;exitX=0.25;exitY=1;exitDx=0;exitDy=0;entryX=1;entryY=0.5;entryDx=0;entryDy=0;" parent="1" source="kgQNQLbI_HPiewj2uFAK-112" target="cXpkJefbk4sWb7GXNzCY-346" edge="1">
          <mxGeometry relative="1" as="geometry" />
        </mxCell>
        <mxCell id="cXpkJefbk4sWb7GXNzCY-485" style="edgeStyle=orthogonalEdgeStyle;rounded=0;orthogonalLoop=1;jettySize=auto;html=1;exitX=0.25;exitY=0;exitDx=0;exitDy=0;entryX=1;entryY=0.5;entryDx=0;entryDy=0;" parent="1" source="kgQNQLbI_HPiewj2uFAK-112" target="cXpkJefbk4sWb7GXNzCY-444" edge="1">
          <mxGeometry relative="1" as="geometry" />
        </mxCell>
        <mxCell id="kgQNQLbI_HPiewj2uFAK-112" value="Datafeed" style="whiteSpace=wrap;html=1;rounded=1;shadow=1;strokeWidth=1;fontSize=16;align=center;fillColor=#f5f5f5;strokeColor=#666666;" parent="1" vertex="1">
          <mxGeometry x="1280" y="-680" width="200" height="40" as="geometry" />
        </mxCell>
        <mxCell id="kgQNQLbI_HPiewj2uFAK-143" style="edgeStyle=orthogonalEdgeStyle;rounded=0;orthogonalLoop=1;jettySize=auto;html=1;exitX=1;exitY=0.75;exitDx=0;exitDy=0;entryX=0;entryY=0.5;entryDx=0;entryDy=0;" parent="1" source="kgQNQLbI_HPiewj2uFAK-113" target="cXpkJefbk4sWb7GXNzCY-30" edge="1">
          <mxGeometry relative="1" as="geometry">
            <mxPoint x="2221" y="-2053.5" as="targetPoint" />
          </mxGeometry>
        </mxCell>
        <mxCell id="kgQNQLbI_HPiewj2uFAK-144" style="edgeStyle=orthogonalEdgeStyle;rounded=0;orthogonalLoop=1;jettySize=auto;html=1;exitX=1;exitY=0.25;exitDx=0;exitDy=0;entryX=0;entryY=0.5;entryDx=0;entryDy=0;" parent="1" source="kgQNQLbI_HPiewj2uFAK-113" target="cXpkJefbk4sWb7GXNzCY-31" edge="1">
          <mxGeometry relative="1" as="geometry">
            <mxPoint x="2221" y="-2123.5" as="targetPoint" />
          </mxGeometry>
        </mxCell>
        <mxCell id="kgQNQLbI_HPiewj2uFAK-113" value="Scroll" style="whiteSpace=wrap;html=1;rounded=1;shadow=1;strokeWidth=1;fontSize=16;align=center;fillColor=#f5f5f5;strokeColor=#666666;" parent="1" vertex="1">
          <mxGeometry x="2001" y="-2133" width="125" height="80" as="geometry" />
        </mxCell>
        <mxCell id="kgQNQLbI_HPiewj2uFAK-145" value="" style="edgeStyle=orthogonalEdgeStyle;rounded=0;orthogonalLoop=1;jettySize=auto;html=1;entryX=0;entryY=0.5;entryDx=0;entryDy=0;" parent="1" source="kgQNQLbI_HPiewj2uFAK-114" target="kgQNQLbI_HPiewj2uFAK-148" edge="1">
          <mxGeometry relative="1" as="geometry" />
        </mxCell>
        <mxCell id="kgQNQLbI_HPiewj2uFAK-150" style="edgeStyle=orthogonalEdgeStyle;rounded=0;orthogonalLoop=1;jettySize=auto;html=1;exitX=1;exitY=0.75;exitDx=0;exitDy=0;entryX=0;entryY=0.25;entryDx=0;entryDy=0;" parent="1" source="kgQNQLbI_HPiewj2uFAK-114" target="kgQNQLbI_HPiewj2uFAK-137" edge="1">
          <mxGeometry relative="1" as="geometry">
            <Array as="points">
              <mxPoint x="2151" y="-560" />
              <mxPoint x="2151" y="-450" />
            </Array>
          </mxGeometry>
        </mxCell>
        <mxCell id="cXpkJefbk4sWb7GXNzCY-63" style="edgeStyle=orthogonalEdgeStyle;rounded=0;orthogonalLoop=1;jettySize=auto;html=1;exitX=1;exitY=0.25;exitDx=0;exitDy=0;entryX=0;entryY=0.5;entryDx=0;entryDy=0;" parent="1" source="kgQNQLbI_HPiewj2uFAK-114" target="cXpkJefbk4sWb7GXNzCY-60" edge="1">
          <mxGeometry relative="1" as="geometry" />
        </mxCell>
        <mxCell id="cXpkJefbk4sWb7GXNzCY-66" style="edgeStyle=orthogonalEdgeStyle;rounded=0;orthogonalLoop=1;jettySize=auto;html=1;exitX=0.75;exitY=0;exitDx=0;exitDy=0;entryX=0;entryY=0.5;entryDx=0;entryDy=0;" parent="1" source="kgQNQLbI_HPiewj2uFAK-114" target="cXpkJefbk4sWb7GXNzCY-64" edge="1">
          <mxGeometry relative="1" as="geometry" />
        </mxCell>
        <mxCell id="kgQNQLbI_HPiewj2uFAK-114" value="Chỉ số trận đấu" style="whiteSpace=wrap;html=1;rounded=1;shadow=1;strokeWidth=1;fontSize=16;align=center;fillColor=#f5f5f5;strokeColor=#666666;" parent="1" vertex="1">
          <mxGeometry x="2001" y="-620" width="125" height="80" as="geometry" />
        </mxCell>
        <mxCell id="kgQNQLbI_HPiewj2uFAK-159" style="edgeStyle=orthogonalEdgeStyle;rounded=0;orthogonalLoop=1;jettySize=auto;html=1;exitX=1;exitY=0.25;exitDx=0;exitDy=0;entryX=0;entryY=0.5;entryDx=0;entryDy=0;" parent="1" source="kgQNQLbI_HPiewj2uFAK-116" target="kgQNQLbI_HPiewj2uFAK-152" edge="1">
          <mxGeometry relative="1" as="geometry" />
        </mxCell>
        <mxCell id="kgQNQLbI_HPiewj2uFAK-160" style="edgeStyle=orthogonalEdgeStyle;rounded=0;orthogonalLoop=1;jettySize=auto;html=1;exitX=1;exitY=0.5;exitDx=0;exitDy=0;entryX=0;entryY=0.5;entryDx=0;entryDy=0;" parent="1" source="kgQNQLbI_HPiewj2uFAK-116" target="kgQNQLbI_HPiewj2uFAK-153" edge="1">
          <mxGeometry relative="1" as="geometry" />
        </mxCell>
        <mxCell id="kgQNQLbI_HPiewj2uFAK-161" style="edgeStyle=orthogonalEdgeStyle;rounded=0;orthogonalLoop=1;jettySize=auto;html=1;exitX=1;exitY=0.75;exitDx=0;exitDy=0;entryX=0;entryY=0.5;entryDx=0;entryDy=0;" parent="1" source="kgQNQLbI_HPiewj2uFAK-116" target="kgQNQLbI_HPiewj2uFAK-154" edge="1">
          <mxGeometry relative="1" as="geometry" />
        </mxCell>
        <mxCell id="kgQNQLbI_HPiewj2uFAK-116" value="Snackbar" style="whiteSpace=wrap;html=1;rounded=1;shadow=1;strokeWidth=1;fontSize=16;align=center;fillColor=#f5f5f5;strokeColor=#666666;" parent="1" vertex="1">
          <mxGeometry x="1580" y="-80" width="125" height="80" as="geometry" />
        </mxCell>
        <mxCell id="kgQNQLbI_HPiewj2uFAK-123" value="Header" style="whiteSpace=wrap;html=1;rounded=1;shadow=1;strokeWidth=1;fontSize=16;align=center;fillColor=#f5f5f5;strokeColor=#666666;" parent="1" vertex="1">
          <mxGeometry x="2001" y="-1291" width="125" height="80" as="geometry" />
        </mxCell>
        <mxCell id="kgQNQLbI_HPiewj2uFAK-125" value="Tên đội" style="whiteSpace=wrap;html=1;rounded=1;shadow=1;strokeWidth=1;fontSize=16;align=center;fillColor=#f5f5f5;strokeColor=#666666;" parent="1" vertex="1">
          <mxGeometry x="2224.5" y="-1346" width="125" height="41" as="geometry" />
        </mxCell>
        <mxCell id="cXpkJefbk4sWb7GXNzCY-11" style="edgeStyle=orthogonalEdgeStyle;rounded=0;orthogonalLoop=1;jettySize=auto;html=1;exitX=1;exitY=0.5;exitDx=0;exitDy=0;" parent="1" source="kgQNQLbI_HPiewj2uFAK-126" target="cXpkJefbk4sWb7GXNzCY-4" edge="1">
          <mxGeometry relative="1" as="geometry" />
        </mxCell>
        <mxCell id="cXpkJefbk4sWb7GXNzCY-22" style="edgeStyle=orthogonalEdgeStyle;rounded=0;orthogonalLoop=1;jettySize=auto;html=1;exitX=1;exitY=0.25;exitDx=0;exitDy=0;entryX=0;entryY=0.5;entryDx=0;entryDy=0;" parent="1" source="kgQNQLbI_HPiewj2uFAK-126" target="cXpkJefbk4sWb7GXNzCY-21" edge="1">
          <mxGeometry relative="1" as="geometry" />
        </mxCell>
        <mxCell id="kgQNQLbI_HPiewj2uFAK-126" value="Thời gian trận đấu" style="whiteSpace=wrap;html=1;rounded=1;shadow=1;strokeWidth=1;fontSize=16;align=center;fillColor=#f5f5f5;strokeColor=#666666;" parent="1" vertex="1">
          <mxGeometry x="2225.5" y="-1588" width="125" height="80" as="geometry" />
        </mxCell>
        <mxCell id="cXpkJefbk4sWb7GXNzCY-474" value="" style="edgeStyle=orthogonalEdgeStyle;rounded=0;orthogonalLoop=1;jettySize=auto;html=1;exitX=1;exitY=0.75;exitDx=0;exitDy=0;" parent="1" source="kgQNQLbI_HPiewj2uFAK-127" target="cXpkJefbk4sWb7GXNzCY-473" edge="1">
          <mxGeometry relative="1" as="geometry" />
        </mxCell>
        <mxCell id="cXpkJefbk4sWb7GXNzCY-478" style="edgeStyle=orthogonalEdgeStyle;rounded=0;orthogonalLoop=1;jettySize=auto;html=1;exitX=1;exitY=0.25;exitDx=0;exitDy=0;entryX=0;entryY=0.5;entryDx=0;entryDy=0;" parent="1" source="kgQNQLbI_HPiewj2uFAK-127" target="cXpkJefbk4sWb7GXNzCY-477" edge="1">
          <mxGeometry relative="1" as="geometry" />
        </mxCell>
        <mxCell id="kgQNQLbI_HPiewj2uFAK-127" value="Tỷ số" style="whiteSpace=wrap;html=1;rounded=1;shadow=1;strokeWidth=1;fontSize=16;align=center;fillColor=#f5f5f5;strokeColor=#666666;" parent="1" vertex="1">
          <mxGeometry x="2224.5" y="-1770" width="125" height="80" as="geometry" />
        </mxCell>
        <mxCell id="kgQNQLbI_HPiewj2uFAK-134" style="edgeStyle=orthogonalEdgeStyle;rounded=0;orthogonalLoop=1;jettySize=auto;html=1;exitX=1;exitY=0.25;exitDx=0;exitDy=0;entryX=0;entryY=0.5;entryDx=0;entryDy=0;" parent="1" source="kgQNQLbI_HPiewj2uFAK-128" target="kgQNQLbI_HPiewj2uFAK-129" edge="1">
          <mxGeometry relative="1" as="geometry" />
        </mxCell>
        <mxCell id="kgQNQLbI_HPiewj2uFAK-135" style="edgeStyle=orthogonalEdgeStyle;rounded=0;orthogonalLoop=1;jettySize=auto;html=1;exitX=1;exitY=0.5;exitDx=0;exitDy=0;entryX=0;entryY=0.5;entryDx=0;entryDy=0;" parent="1" source="kgQNQLbI_HPiewj2uFAK-128" target="kgQNQLbI_HPiewj2uFAK-132" edge="1">
          <mxGeometry relative="1" as="geometry" />
        </mxCell>
        <mxCell id="kgQNQLbI_HPiewj2uFAK-136" style="edgeStyle=orthogonalEdgeStyle;rounded=0;orthogonalLoop=1;jettySize=auto;html=1;exitX=1;exitY=0.75;exitDx=0;exitDy=0;entryX=0;entryY=0.5;entryDx=0;entryDy=0;" parent="1" source="kgQNQLbI_HPiewj2uFAK-128" target="kgQNQLbI_HPiewj2uFAK-133" edge="1">
          <mxGeometry relative="1" as="geometry" />
        </mxCell>
        <mxCell id="kgQNQLbI_HPiewj2uFAK-128" value="Danh sách ghi bàn" style="whiteSpace=wrap;html=1;rounded=1;shadow=1;strokeWidth=1;fontSize=16;align=center;fillColor=#f5f5f5;strokeColor=#666666;" parent="1" vertex="1">
          <mxGeometry x="2225.5" y="-1959" width="125" height="80" as="geometry" />
        </mxCell>
        <mxCell id="kgQNQLbI_HPiewj2uFAK-129" value="Tên cầu thủ" style="whiteSpace=wrap;html=1;rounded=1;shadow=1;strokeWidth=1;fontSize=16;align=center;fillColor=#f5f5f5;strokeColor=#666666;" parent="1" vertex="1">
          <mxGeometry x="2445.5" y="-1990" width="125" height="41" as="geometry" />
        </mxCell>
        <mxCell id="cXpkJefbk4sWb7GXNzCY-19" value="" style="edgeStyle=orthogonalEdgeStyle;rounded=0;orthogonalLoop=1;jettySize=auto;html=1;" parent="1" source="kgQNQLbI_HPiewj2uFAK-132" target="cXpkJefbk4sWb7GXNzCY-18" edge="1">
          <mxGeometry relative="1" as="geometry" />
        </mxCell>
        <mxCell id="cXpkJefbk4sWb7GXNzCY-572" style="edgeStyle=orthogonalEdgeStyle;rounded=0;orthogonalLoop=1;jettySize=auto;html=1;exitX=1;exitY=0.75;exitDx=0;exitDy=0;entryX=0;entryY=0.5;entryDx=0;entryDy=0;" parent="1" source="kgQNQLbI_HPiewj2uFAK-132" target="cXpkJefbk4sWb7GXNzCY-571" edge="1">
          <mxGeometry relative="1" as="geometry" />
        </mxCell>
        <mxCell id="cXpkJefbk4sWb7GXNzCY-573" style="edgeStyle=orthogonalEdgeStyle;rounded=0;orthogonalLoop=1;jettySize=auto;html=1;exitX=1;exitY=0.25;exitDx=0;exitDy=0;entryX=0;entryY=0.5;entryDx=0;entryDy=0;" parent="1" source="kgQNQLbI_HPiewj2uFAK-132" target="cXpkJefbk4sWb7GXNzCY-570" edge="1">
          <mxGeometry relative="1" as="geometry" />
        </mxCell>
        <mxCell id="kgQNQLbI_HPiewj2uFAK-132" value="Số phút" style="whiteSpace=wrap;html=1;rounded=1;shadow=1;strokeWidth=1;fontSize=16;align=center;fillColor=#f5f5f5;strokeColor=#666666;" parent="1" vertex="1">
          <mxGeometry x="2445.5" y="-1939.5" width="125" height="41" as="geometry" />
        </mxCell>
        <mxCell id="kgQNQLbI_HPiewj2uFAK-133" value="Icon ghi bàn" style="whiteSpace=wrap;html=1;rounded=1;shadow=1;strokeWidth=1;fontSize=16;align=center;fillColor=#f5f5f5;strokeColor=#666666;" parent="1" vertex="1">
          <mxGeometry x="2445.5" y="-1890" width="125" height="41" as="geometry" />
        </mxCell>
        <mxCell id="kgQNQLbI_HPiewj2uFAK-139" style="edgeStyle=orthogonalEdgeStyle;rounded=0;orthogonalLoop=1;jettySize=auto;html=1;exitX=1;exitY=0.5;exitDx=0;exitDy=0;entryX=0;entryY=0.5;entryDx=0;entryDy=0;" parent="1" source="kgQNQLbI_HPiewj2uFAK-137" edge="1">
          <mxGeometry relative="1" as="geometry">
            <mxPoint x="2421" y="-439.9999999999998" as="targetPoint" />
          </mxGeometry>
        </mxCell>
        <mxCell id="kgQNQLbI_HPiewj2uFAK-137" value="20 thông số" style="whiteSpace=wrap;html=1;rounded=1;shadow=1;strokeWidth=1;fontSize=16;align=center;fillColor=#f5f5f5;strokeColor=#666666;" parent="1" vertex="1">
          <mxGeometry x="2221" y="-460.5" width="125" height="41" as="geometry" />
        </mxCell>
        <mxCell id="kgQNQLbI_HPiewj2uFAK-151" style="edgeStyle=orthogonalEdgeStyle;rounded=0;orthogonalLoop=1;jettySize=auto;html=1;exitX=1;exitY=0.5;exitDx=0;exitDy=0;" parent="1" source="kgQNQLbI_HPiewj2uFAK-148" edge="1">
          <mxGeometry relative="1" as="geometry">
            <mxPoint x="2421" y="-529.4999999999998" as="targetPoint" />
          </mxGeometry>
        </mxCell>
        <mxCell id="kgQNQLbI_HPiewj2uFAK-148" value="Hiển thị 7.5 thông số" style="whiteSpace=wrap;html=1;rounded=1;shadow=1;strokeWidth=1;fontSize=16;align=center;fillColor=#f5f5f5;strokeColor=#666666;" parent="1" vertex="1">
          <mxGeometry x="2221" y="-550" width="125" height="41" as="geometry" />
        </mxCell>
        <mxCell id="kgQNQLbI_HPiewj2uFAK-152" value="Di chuyển" style="whiteSpace=wrap;html=1;rounded=1;shadow=1;strokeWidth=1;fontSize=16;align=center;fillColor=#f5f5f5;strokeColor=#666666;" parent="1" vertex="1">
          <mxGeometry x="1760" y="-130" width="125" height="50" as="geometry" />
        </mxCell>
        <mxCell id="kgQNQLbI_HPiewj2uFAK-158" value="" style="edgeStyle=orthogonalEdgeStyle;rounded=0;orthogonalLoop=1;jettySize=auto;html=1;" parent="1" source="kgQNQLbI_HPiewj2uFAK-153" target="kgQNQLbI_HPiewj2uFAK-157" edge="1">
          <mxGeometry relative="1" as="geometry" />
        </mxCell>
        <mxCell id="kgQNQLbI_HPiewj2uFAK-153" value="Đóng" style="whiteSpace=wrap;html=1;rounded=1;shadow=1;strokeWidth=1;fontSize=16;align=center;fillColor=#f5f5f5;strokeColor=#666666;" parent="1" vertex="1">
          <mxGeometry x="1760" y="-65" width="125" height="50" as="geometry" />
        </mxCell>
        <mxCell id="kgQNQLbI_HPiewj2uFAK-165" value="" style="edgeStyle=orthogonalEdgeStyle;rounded=0;orthogonalLoop=1;jettySize=auto;html=1;" parent="1" source="kgQNQLbI_HPiewj2uFAK-154" target="kgQNQLbI_HPiewj2uFAK-164" edge="1">
          <mxGeometry relative="1" as="geometry" />
        </mxCell>
        <mxCell id="kgQNQLbI_HPiewj2uFAK-154" value="Thử ngay" style="whiteSpace=wrap;html=1;rounded=1;shadow=1;strokeWidth=1;fontSize=16;align=center;fillColor=#f5f5f5;strokeColor=#666666;" parent="1" vertex="1">
          <mxGeometry x="1760" width="125" height="50" as="geometry" />
        </mxCell>
        <mxCell id="kgQNQLbI_HPiewj2uFAK-157" value="Tiếp tục play sự kiện" style="whiteSpace=wrap;html=1;rounded=1;shadow=1;strokeWidth=1;fontSize=16;align=center;fillColor=#00CCCC;strokeColor=#666666;" parent="1" vertex="1">
          <mxGeometry x="1965" y="-65" width="125" height="50" as="geometry" />
        </mxCell>
        <mxCell id="kgQNQLbI_HPiewj2uFAK-164" value="Datafeed" style="whiteSpace=wrap;html=1;rounded=1;shadow=1;strokeWidth=1;fontSize=16;align=center;fillColor=#00CCCC;strokeColor=#666666;" parent="1" vertex="1">
          <mxGeometry x="1965" width="125" height="50" as="geometry" />
        </mxCell>
        <mxCell id="cXpkJefbk4sWb7GXNzCY-1" value="min:s" style="whiteSpace=wrap;html=1;fontSize=16;fillColor=#00CCCC;strokeColor=#666666;rounded=1;shadow=1;strokeWidth=1;" parent="1" vertex="1">
          <mxGeometry x="2654" y="-1591" width="120" height="60" as="geometry" />
        </mxCell>
        <mxCell id="cXpkJefbk4sWb7GXNzCY-2" value="Fulltime" style="whiteSpace=wrap;html=1;fontSize=16;fillColor=#00CCCC;strokeColor=#666666;rounded=1;shadow=1;strokeWidth=1;" parent="1" vertex="1">
          <mxGeometry x="2654" y="-1510" width="120" height="60" as="geometry" />
        </mxCell>
        <mxCell id="cXpkJefbk4sWb7GXNzCY-8" value="" style="edgeStyle=orthogonalEdgeStyle;rounded=0;orthogonalLoop=1;jettySize=auto;html=1;entryX=0;entryY=0.5;entryDx=0;entryDy=0;" parent="1" source="cXpkJefbk4sWb7GXNzCY-4" target="cXpkJefbk4sWb7GXNzCY-1" edge="1">
          <mxGeometry relative="1" as="geometry">
            <Array as="points">
              <mxPoint x="2612.5" y="-1520" />
              <mxPoint x="2612.5" y="-1561" />
            </Array>
          </mxGeometry>
        </mxCell>
        <mxCell id="cXpkJefbk4sWb7GXNzCY-14" value="Không" style="edgeLabel;html=1;align=center;verticalAlign=middle;resizable=0;points=[];" parent="cXpkJefbk4sWb7GXNzCY-8" vertex="1" connectable="0">
          <mxGeometry x="-0.4449" y="4" relative="1" as="geometry">
            <mxPoint as="offset" />
          </mxGeometry>
        </mxCell>
        <mxCell id="cXpkJefbk4sWb7GXNzCY-10" style="edgeStyle=orthogonalEdgeStyle;rounded=0;orthogonalLoop=1;jettySize=auto;html=1;exitX=1;exitY=0.75;exitDx=0;exitDy=0;entryX=0;entryY=0.5;entryDx=0;entryDy=0;" parent="1" source="cXpkJefbk4sWb7GXNzCY-4" target="cXpkJefbk4sWb7GXNzCY-2" edge="1">
          <mxGeometry relative="1" as="geometry" />
        </mxCell>
        <mxCell id="cXpkJefbk4sWb7GXNzCY-15" value="Có" style="edgeLabel;html=1;align=center;verticalAlign=middle;resizable=0;points=[];" parent="cXpkJefbk4sWb7GXNzCY-10" vertex="1" connectable="0">
          <mxGeometry x="-0.2677" y="3" relative="1" as="geometry">
            <mxPoint as="offset" />
          </mxGeometry>
        </mxCell>
        <mxCell id="cXpkJefbk4sWb7GXNzCY-4" value="Hết giờ" style="whiteSpace=wrap;html=1;rounded=1;shadow=1;strokeWidth=1;fontSize=16;align=center;fillColor=#f5f5f5;strokeColor=#666666;" parent="1" vertex="1">
          <mxGeometry x="2446.5" y="-1531" width="125" height="41" as="geometry" />
        </mxCell>
        <mxCell id="cXpkJefbk4sWb7GXNzCY-18" value="Nhiều bàn" style="whiteSpace=wrap;html=1;fontSize=16;fillColor=#00CCCC;strokeColor=#666666;rounded=1;shadow=1;strokeWidth=1;" parent="1" vertex="1">
          <mxGeometry x="2670" y="-1949" width="120" height="60" as="geometry" />
        </mxCell>
        <mxCell id="cXpkJefbk4sWb7GXNzCY-21" value="mờ" style="whiteSpace=wrap;html=1;fontSize=16;fillColor=#00CCCC;strokeColor=#666666;rounded=1;shadow=1;strokeWidth=1;" parent="1" vertex="1">
          <mxGeometry x="2445.5" y="-1618" width="120" height="60" as="geometry" />
        </mxCell>
        <mxCell id="cXpkJefbk4sWb7GXNzCY-30" value="Không có thanh cuộn" style="whiteSpace=wrap;html=1;fontSize=16;fillColor=#00CCCC;strokeColor=#666666;rounded=1;shadow=1;strokeWidth=1;" parent="1" vertex="1">
          <mxGeometry x="2221" y="-2090" width="120" height="60" as="geometry" />
        </mxCell>
        <mxCell id="cXpkJefbk4sWb7GXNzCY-31" value="Chỉ cuộn dữ liệu trong" style="whiteSpace=wrap;html=1;fontSize=16;fillColor=#00CCCC;strokeColor=#666666;rounded=1;shadow=1;strokeWidth=1;" parent="1" vertex="1">
          <mxGeometry x="2221" y="-2160" width="120" height="60" as="geometry" />
        </mxCell>
        <mxCell id="cXpkJefbk4sWb7GXNzCY-34" value="Không hiện thông số không có dữ liệu" style="whiteSpace=wrap;html=1;fontSize=16;fillColor=#00CCCC;strokeColor=#666666;rounded=1;shadow=1;strokeWidth=1;" parent="1" vertex="1">
          <mxGeometry x="2421" y="-470" width="120" height="60" as="geometry" />
        </mxCell>
        <mxCell id="cXpkJefbk4sWb7GXNzCY-35" value="Scroll để xem thêm" style="whiteSpace=wrap;html=1;fontSize=16;fillColor=#00CCCC;strokeColor=#666666;rounded=1;shadow=1;strokeWidth=1;" parent="1" vertex="1">
          <mxGeometry x="2421" y="-559.5" width="120" height="60" as="geometry" />
        </mxCell>
        <mxCell id="cXpkJefbk4sWb7GXNzCY-40" value="" style="edgeStyle=orthogonalEdgeStyle;rounded=0;orthogonalLoop=1;jettySize=auto;html=1;" parent="1" source="cXpkJefbk4sWb7GXNzCY-38" target="cXpkJefbk4sWb7GXNzCY-39" edge="1">
          <mxGeometry relative="1" as="geometry" />
        </mxCell>
        <mxCell id="cXpkJefbk4sWb7GXNzCY-42" value="" style="edgeStyle=orthogonalEdgeStyle;rounded=0;orthogonalLoop=1;jettySize=auto;html=1;" parent="1" source="cXpkJefbk4sWb7GXNzCY-38" target="cXpkJefbk4sWb7GXNzCY-41" edge="1">
          <mxGeometry relative="1" as="geometry" />
        </mxCell>
        <mxCell id="cXpkJefbk4sWb7GXNzCY-38" value="Snackbar" style="whiteSpace=wrap;html=1;rounded=1;shadow=1;strokeWidth=1;fontSize=16;align=center;fillColor=#f5f5f5;strokeColor=#666666;" parent="1" vertex="1">
          <mxGeometry x="1280" y="760" width="200" height="40" as="geometry" />
        </mxCell>
        <mxCell id="mxKlV8JhnhSBez3Am2Ye-5" style="edgeStyle=orthogonalEdgeStyle;rounded=0;orthogonalLoop=1;jettySize=auto;html=1;exitX=1;exitY=0.5;exitDx=0;exitDy=0;entryX=0.5;entryY=0;entryDx=0;entryDy=0;" edge="1" parent="1" source="cXpkJefbk4sWb7GXNzCY-39" target="cXpkJefbk4sWb7GXNzCY-273">
          <mxGeometry relative="1" as="geometry" />
        </mxCell>
        <mxCell id="mxKlV8JhnhSBez3Am2Ye-6" style="edgeStyle=orthogonalEdgeStyle;rounded=0;orthogonalLoop=1;jettySize=auto;html=1;exitX=0.5;exitY=1;exitDx=0;exitDy=0;entryX=0.5;entryY=0;entryDx=0;entryDy=0;" edge="1" parent="1" source="cXpkJefbk4sWb7GXNzCY-39" target="cXpkJefbk4sWb7GXNzCY-355">
          <mxGeometry relative="1" as="geometry" />
        </mxCell>
        <mxCell id="cXpkJefbk4sWb7GXNzCY-39" value="Thử ngay" style="whiteSpace=wrap;html=1;fontSize=16;fillColor=#f5f5f5;strokeColor=#666666;rounded=1;shadow=1;strokeWidth=1;arcSize=50;" parent="1" vertex="1">
          <mxGeometry x="1320" y="835" width="120" height="60" as="geometry" />
        </mxCell>
        <mxCell id="cXpkJefbk4sWb7GXNzCY-272" value="" style="edgeStyle=orthogonalEdgeStyle;rounded=0;orthogonalLoop=1;jettySize=auto;html=1;" parent="1" source="cXpkJefbk4sWb7GXNzCY-41" target="cXpkJefbk4sWb7GXNzCY-45" edge="1">
          <mxGeometry relative="1" as="geometry" />
        </mxCell>
        <mxCell id="cXpkJefbk4sWb7GXNzCY-41" value="Đóng/đợi 15s" style="whiteSpace=wrap;html=1;fontSize=16;fillColor=#f5f5f5;strokeColor=#666666;rounded=1;shadow=1;strokeWidth=1;arcSize=50;" parent="1" vertex="1">
          <mxGeometry x="1080" y="840" width="120" height="60" as="geometry" />
        </mxCell>
        <mxCell id="cXpkJefbk4sWb7GXNzCY-357" value="" style="edgeStyle=orthogonalEdgeStyle;rounded=0;orthogonalLoop=1;jettySize=auto;html=1;" parent="1" source="cXpkJefbk4sWb7GXNzCY-45" target="cXpkJefbk4sWb7GXNzCY-355" edge="1">
          <mxGeometry relative="1" as="geometry" />
        </mxCell>
        <mxCell id="cXpkJefbk4sWb7GXNzCY-45" value="Đóng bar, play kênh" style="whiteSpace=wrap;html=1;rounded=1;shadow=1;strokeWidth=1;fontSize=16;align=center;fillColor=#f5f5f5;strokeColor=#666666;" parent="1" vertex="1">
          <mxGeometry x="1040" y="960" width="200" height="40" as="geometry" />
        </mxCell>
        <mxCell id="cXpkJefbk4sWb7GXNzCY-548" style="edgeStyle=orthogonalEdgeStyle;rounded=0;orthogonalLoop=1;jettySize=auto;html=1;exitX=0.25;exitY=1;exitDx=0;exitDy=0;entryX=0.5;entryY=0;entryDx=0;entryDy=0;" parent="1" source="cXpkJefbk4sWb7GXNzCY-46" target="cXpkJefbk4sWb7GXNzCY-547" edge="1">
          <mxGeometry relative="1" as="geometry" />
        </mxCell>
        <mxCell id="cXpkJefbk4sWb7GXNzCY-46" value="Focus Thông số" style="whiteSpace=wrap;html=1;rounded=1;shadow=1;strokeWidth=1;fontSize=16;align=center;fillColor=#f5f5f5;strokeColor=#666666;" parent="1" vertex="1">
          <mxGeometry x="1520" y="1200" width="200" height="40" as="geometry" />
        </mxCell>
        <mxCell id="cXpkJefbk4sWb7GXNzCY-578" style="edgeStyle=orthogonalEdgeStyle;rounded=0;orthogonalLoop=1;jettySize=auto;html=1;exitX=1;exitY=0.5;exitDx=0;exitDy=0;entryX=0;entryY=0.5;entryDx=0;entryDy=0;" parent="1" source="cXpkJefbk4sWb7GXNzCY-48" target="cXpkJefbk4sWb7GXNzCY-50" edge="1">
          <mxGeometry relative="1" as="geometry" />
        </mxCell>
        <mxCell id="cXpkJefbk4sWb7GXNzCY-48" value="Livechat" style="whiteSpace=wrap;html=1;fontSize=16;fillColor=#f5f5f5;strokeColor=#666666;rounded=1;shadow=1;strokeWidth=1;arcSize=50;" parent="1" vertex="1">
          <mxGeometry x="1821" y="1007.5" width="120" height="60" as="geometry" />
        </mxCell>
        <mxCell id="cXpkJefbk4sWb7GXNzCY-582" style="edgeStyle=orthogonalEdgeStyle;rounded=0;orthogonalLoop=1;jettySize=auto;html=1;exitX=1;exitY=0.5;exitDx=0;exitDy=0;" parent="1" source="cXpkJefbk4sWb7GXNzCY-50" target="cXpkJefbk4sWb7GXNzCY-581" edge="1">
          <mxGeometry relative="1" as="geometry" />
        </mxCell>
        <mxCell id="cXpkJefbk4sWb7GXNzCY-50" value="Tắt datafeed" style="whiteSpace=wrap;html=1;rounded=1;shadow=1;strokeWidth=1;fontSize=16;align=center;fillColor=#f5f5f5;strokeColor=#666666;" parent="1" vertex="1">
          <mxGeometry x="2020" y="960" width="200" height="40" as="geometry" />
        </mxCell>
        <mxCell id="cXpkJefbk4sWb7GXNzCY-281" value="" style="edgeStyle=orthogonalEdgeStyle;rounded=0;orthogonalLoop=1;jettySize=auto;html=1;" parent="1" source="cXpkJefbk4sWb7GXNzCY-52" target="cXpkJefbk4sWb7GXNzCY-46" edge="1">
          <mxGeometry relative="1" as="geometry" />
        </mxCell>
        <mxCell id="cXpkJefbk4sWb7GXNzCY-282" style="edgeStyle=orthogonalEdgeStyle;rounded=0;orthogonalLoop=1;jettySize=auto;html=1;exitX=1;exitY=0.75;exitDx=0;exitDy=0;entryX=0.5;entryY=0;entryDx=0;entryDy=0;" parent="1" source="cXpkJefbk4sWb7GXNzCY-52" target="cXpkJefbk4sWb7GXNzCY-507" edge="1">
          <mxGeometry relative="1" as="geometry">
            <mxPoint x="2380" y="1155" as="targetPoint" />
          </mxGeometry>
        </mxCell>
        <mxCell id="cXpkJefbk4sWb7GXNzCY-336" style="edgeStyle=orthogonalEdgeStyle;rounded=0;orthogonalLoop=1;jettySize=auto;html=1;exitX=0.25;exitY=1;exitDx=0;exitDy=0;entryX=0.5;entryY=0;entryDx=0;entryDy=0;" parent="1" source="cXpkJefbk4sWb7GXNzCY-52" target="cXpkJefbk4sWb7GXNzCY-311" edge="1">
          <mxGeometry relative="1" as="geometry" />
        </mxCell>
        <mxCell id="cXpkJefbk4sWb7GXNzCY-337" style="edgeStyle=orthogonalEdgeStyle;rounded=0;orthogonalLoop=1;jettySize=auto;html=1;exitX=0;exitY=0.75;exitDx=0;exitDy=0;entryX=0.5;entryY=0;entryDx=0;entryDy=0;" parent="1" source="cXpkJefbk4sWb7GXNzCY-52" target="cXpkJefbk4sWb7GXNzCY-320" edge="1">
          <mxGeometry relative="1" as="geometry" />
        </mxCell>
        <mxCell id="cXpkJefbk4sWb7GXNzCY-52" value="Tiếp tục phát khi mở datafeed" style="whiteSpace=wrap;html=1;rounded=1;shadow=1;strokeWidth=1;fontSize=16;align=center;fillColor=#f5f5f5;strokeColor=#666666;" parent="1" vertex="1">
          <mxGeometry x="1520" y="1080" width="200" height="40" as="geometry" />
        </mxCell>
        <mxCell id="cXpkJefbk4sWb7GXNzCY-59" value="" style="edgeStyle=orthogonalEdgeStyle;rounded=0;orthogonalLoop=1;jettySize=auto;html=1;" parent="1" source="cXpkJefbk4sWb7GXNzCY-56" target="cXpkJefbk4sWb7GXNzCY-58" edge="1">
          <mxGeometry relative="1" as="geometry" />
        </mxCell>
        <mxCell id="cXpkJefbk4sWb7GXNzCY-56" value="Tap/Button X" style="whiteSpace=wrap;html=1;fontSize=16;fillColor=#f5f5f5;strokeColor=#666666;rounded=1;shadow=1;strokeWidth=1;arcSize=50;" parent="1" vertex="1">
          <mxGeometry x="1400" y="1800" width="120" height="60" as="geometry" />
        </mxCell>
        <mxCell id="cXpkJefbk4sWb7GXNzCY-58" value="Tắt datafeed" style="whiteSpace=wrap;html=1;rounded=1;shadow=1;strokeWidth=1;fontSize=16;align=center;fillColor=#f5f5f5;strokeColor=#666666;" parent="1" vertex="1">
          <mxGeometry x="1360" y="1919" width="200" height="40" as="geometry" />
        </mxCell>
        <mxCell id="cXpkJefbk4sWb7GXNzCY-62" value="" style="edgeStyle=orthogonalEdgeStyle;rounded=0;orthogonalLoop=1;jettySize=auto;html=1;" parent="1" source="cXpkJefbk4sWb7GXNzCY-60" target="cXpkJefbk4sWb7GXNzCY-61" edge="1">
          <mxGeometry relative="1" as="geometry" />
        </mxCell>
        <mxCell id="cXpkJefbk4sWb7GXNzCY-60" value="Tỷ lệ kiểm soát bóng" style="whiteSpace=wrap;html=1;rounded=1;shadow=1;strokeWidth=1;fontSize=16;align=center;fillColor=#f5f5f5;strokeColor=#666666;" parent="1" vertex="1">
          <mxGeometry x="2221" y="-650" width="125" height="41" as="geometry" />
        </mxCell>
        <mxCell id="cXpkJefbk4sWb7GXNzCY-61" value="Hiện %" style="whiteSpace=wrap;html=1;fontSize=16;fillColor=#00CCCC;strokeColor=#666666;rounded=1;shadow=1;strokeWidth=1;" parent="1" vertex="1">
          <mxGeometry x="2421" y="-659.5" width="120" height="60" as="geometry" />
        </mxCell>
        <mxCell id="cXpkJefbk4sWb7GXNzCY-68" style="edgeStyle=orthogonalEdgeStyle;rounded=0;orthogonalLoop=1;jettySize=auto;html=1;exitX=1;exitY=0.5;exitDx=0;exitDy=0;" parent="1" source="cXpkJefbk4sWb7GXNzCY-64" target="cXpkJefbk4sWb7GXNzCY-65" edge="1">
          <mxGeometry relative="1" as="geometry" />
        </mxCell>
        <mxCell id="cXpkJefbk4sWb7GXNzCY-69" style="edgeStyle=orthogonalEdgeStyle;rounded=0;orthogonalLoop=1;jettySize=auto;html=1;exitX=1;exitY=0.75;exitDx=0;exitDy=0;entryX=0;entryY=0.5;entryDx=0;entryDy=0;" parent="1" source="cXpkJefbk4sWb7GXNzCY-64" target="cXpkJefbk4sWb7GXNzCY-67" edge="1">
          <mxGeometry relative="1" as="geometry" />
        </mxCell>
        <mxCell id="cXpkJefbk4sWb7GXNzCY-364" style="edgeStyle=orthogonalEdgeStyle;rounded=0;orthogonalLoop=1;jettySize=auto;html=1;exitX=1;exitY=0.25;exitDx=0;exitDy=0;entryX=0;entryY=0.5;entryDx=0;entryDy=0;" parent="1" source="cXpkJefbk4sWb7GXNzCY-64" target="cXpkJefbk4sWb7GXNzCY-363" edge="1">
          <mxGeometry relative="1" as="geometry" />
        </mxCell>
        <mxCell id="cXpkJefbk4sWb7GXNzCY-64" value="Thanh dữ liệu" style="whiteSpace=wrap;html=1;rounded=1;shadow=1;strokeWidth=1;fontSize=16;align=center;fillColor=#f5f5f5;strokeColor=#666666;" parent="1" vertex="1">
          <mxGeometry x="2221" y="-800" width="125" height="41" as="geometry" />
        </mxCell>
        <mxCell id="cXpkJefbk4sWb7GXNzCY-65" value="Khách bên phải" style="whiteSpace=wrap;html=1;fontSize=16;fillColor=#00CCCC;strokeColor=#666666;rounded=1;shadow=1;strokeWidth=1;" parent="1" vertex="1">
          <mxGeometry x="2421" y="-810" width="120" height="60" as="geometry" />
        </mxCell>
        <mxCell id="cXpkJefbk4sWb7GXNzCY-67" value="Nhà bên trái" style="whiteSpace=wrap;html=1;fontSize=16;fillColor=#00CCCC;strokeColor=#666666;rounded=1;shadow=1;strokeWidth=1;" parent="1" vertex="1">
          <mxGeometry x="2421" y="-729" width="120" height="60" as="geometry" />
        </mxCell>
        <mxCell id="cXpkJefbk4sWb7GXNzCY-114" style="edgeStyle=orthogonalEdgeStyle;rounded=0;orthogonalLoop=1;jettySize=auto;html=1;exitX=0.5;exitY=1;exitDx=0;exitDy=0;entryX=0.5;entryY=0;entryDx=0;entryDy=0;" parent="1" source="cXpkJefbk4sWb7GXNzCY-72" target="cXpkJefbk4sWb7GXNzCY-113" edge="1">
          <mxGeometry relative="1" as="geometry" />
        </mxCell>
        <mxCell id="cXpkJefbk4sWb7GXNzCY-221" style="edgeStyle=orthogonalEdgeStyle;rounded=0;orthogonalLoop=1;jettySize=auto;html=1;exitX=1;exitY=0.5;exitDx=0;exitDy=0;entryX=0;entryY=0.5;entryDx=0;entryDy=0;" parent="1" source="cXpkJefbk4sWb7GXNzCY-72" target="cXpkJefbk4sWb7GXNzCY-187" edge="1">
          <mxGeometry relative="1" as="geometry" />
        </mxCell>
        <mxCell id="cXpkJefbk4sWb7GXNzCY-72" value="Diễn biến" style="whiteSpace=wrap;html=1;rounded=1;shadow=1;strokeWidth=1;fontSize=16;align=center;fillColor=#f5f5f5;strokeColor=#666666;" parent="1" vertex="1">
          <mxGeometry x="1560" y="-2544" width="200" height="40" as="geometry" />
        </mxCell>
        <mxCell id="cXpkJefbk4sWb7GXNzCY-181" style="edgeStyle=orthogonalEdgeStyle;rounded=0;orthogonalLoop=1;jettySize=auto;html=1;exitX=1;exitY=1;exitDx=0;exitDy=0;entryX=0;entryY=0.5;entryDx=0;entryDy=0;" parent="1" source="cXpkJefbk4sWb7GXNzCY-113" target="kgQNQLbI_HPiewj2uFAK-123" edge="1">
          <mxGeometry relative="1" as="geometry" />
        </mxCell>
        <mxCell id="cXpkJefbk4sWb7GXNzCY-182" style="edgeStyle=orthogonalEdgeStyle;rounded=0;orthogonalLoop=1;jettySize=auto;html=1;exitX=1;exitY=0.75;exitDx=0;exitDy=0;entryX=0;entryY=0.5;entryDx=0;entryDy=0;" parent="1" source="cXpkJefbk4sWb7GXNzCY-113" target="kgQNQLbI_HPiewj2uFAK-110" edge="1">
          <mxGeometry relative="1" as="geometry" />
        </mxCell>
        <mxCell id="cXpkJefbk4sWb7GXNzCY-347" style="edgeStyle=orthogonalEdgeStyle;rounded=0;orthogonalLoop=1;jettySize=auto;html=1;exitX=1;exitY=0;exitDx=0;exitDy=0;entryX=0;entryY=0.5;entryDx=0;entryDy=0;" parent="1" source="cXpkJefbk4sWb7GXNzCY-113" target="kgQNQLbI_HPiewj2uFAK-113" edge="1">
          <mxGeometry relative="1" as="geometry" />
        </mxCell>
        <mxCell id="cXpkJefbk4sWb7GXNzCY-457" style="edgeStyle=orthogonalEdgeStyle;rounded=0;orthogonalLoop=1;jettySize=auto;html=1;exitX=1;exitY=1;exitDx=0;exitDy=0;entryX=0;entryY=0.5;entryDx=0;entryDy=0;" parent="1" source="cXpkJefbk4sWb7GXNzCY-113" target="cXpkJefbk4sWb7GXNzCY-128" edge="1">
          <mxGeometry relative="1" as="geometry" />
        </mxCell>
        <mxCell id="cXpkJefbk4sWb7GXNzCY-113" value="Chung (realtime)" style="whiteSpace=wrap;html=1;rounded=1;shadow=1;strokeWidth=1;fontSize=16;align=center;fillColor=#f5f5f5;strokeColor=#666666;" parent="1" vertex="1">
          <mxGeometry x="1560" y="-1490" width="200" height="40" as="geometry" />
        </mxCell>
        <mxCell id="cXpkJefbk4sWb7GXNzCY-126" style="edgeStyle=orthogonalEdgeStyle;rounded=0;orthogonalLoop=1;jettySize=auto;html=1;exitX=1;exitY=0.25;exitDx=0;exitDy=0;entryX=0;entryY=0.5;entryDx=0;entryDy=0;" parent="1" source="cXpkJefbk4sWb7GXNzCY-128" target="cXpkJefbk4sWb7GXNzCY-133" edge="1">
          <mxGeometry relative="1" as="geometry" />
        </mxCell>
        <mxCell id="cXpkJefbk4sWb7GXNzCY-127" style="edgeStyle=orthogonalEdgeStyle;rounded=0;orthogonalLoop=1;jettySize=auto;html=1;exitX=1;exitY=0.75;exitDx=0;exitDy=0;entryX=0;entryY=0.5;entryDx=0;entryDy=0;" parent="1" source="cXpkJefbk4sWb7GXNzCY-128" target="cXpkJefbk4sWb7GXNzCY-131" edge="1">
          <mxGeometry relative="1" as="geometry" />
        </mxCell>
        <mxCell id="cXpkJefbk4sWb7GXNzCY-128" value="Focus" style="whiteSpace=wrap;html=1;rounded=1;shadow=1;strokeWidth=1;fontSize=16;align=center;fillColor=#f5f5f5;strokeColor=#666666;" parent="1" vertex="1">
          <mxGeometry x="2001" y="-1158" width="125" height="80" as="geometry" />
        </mxCell>
        <mxCell id="cXpkJefbk4sWb7GXNzCY-129" value="" style="edgeStyle=orthogonalEdgeStyle;rounded=0;orthogonalLoop=1;jettySize=auto;html=1;" parent="1" source="cXpkJefbk4sWb7GXNzCY-131" target="cXpkJefbk4sWb7GXNzCY-139" edge="1">
          <mxGeometry relative="1" as="geometry" />
        </mxCell>
        <mxCell id="cXpkJefbk4sWb7GXNzCY-130" value="" style="edgeStyle=orthogonalEdgeStyle;rounded=0;orthogonalLoop=1;jettySize=auto;html=1;" parent="1" source="cXpkJefbk4sWb7GXNzCY-131" target="cXpkJefbk4sWb7GXNzCY-140" edge="1">
          <mxGeometry relative="1" as="geometry" />
        </mxCell>
        <mxCell id="cXpkJefbk4sWb7GXNzCY-131" value="Ko focus" style="whiteSpace=wrap;html=1;rounded=1;shadow=1;strokeWidth=1;fontSize=16;align=center;fillColor=#f5f5f5;strokeColor=#666666;" parent="1" vertex="1">
          <mxGeometry x="2221" y="-1103" width="125" height="50" as="geometry" />
        </mxCell>
        <mxCell id="cXpkJefbk4sWb7GXNzCY-132" value="" style="edgeStyle=orthogonalEdgeStyle;rounded=0;orthogonalLoop=1;jettySize=auto;html=1;" parent="1" source="cXpkJefbk4sWb7GXNzCY-133" target="cXpkJefbk4sWb7GXNzCY-136" edge="1">
          <mxGeometry relative="1" as="geometry" />
        </mxCell>
        <mxCell id="cXpkJefbk4sWb7GXNzCY-133" value="Có focus" style="whiteSpace=wrap;html=1;rounded=1;shadow=1;strokeWidth=1;fontSize=16;align=center;fillColor=#f5f5f5;strokeColor=#666666;" parent="1" vertex="1">
          <mxGeometry x="2221" y="-1199" width="125" height="50" as="geometry" />
        </mxCell>
        <mxCell id="cXpkJefbk4sWb7GXNzCY-135" style="edgeStyle=orthogonalEdgeStyle;rounded=0;orthogonalLoop=1;jettySize=auto;html=1;exitX=0.5;exitY=1;exitDx=0;exitDy=0;" parent="1" edge="1">
          <mxGeometry relative="1" as="geometry">
            <mxPoint x="2283.5" y="-1238" as="sourcePoint" />
            <mxPoint x="2283.5" y="-1238" as="targetPoint" />
          </mxGeometry>
        </mxCell>
        <mxCell id="cXpkJefbk4sWb7GXNzCY-136" value="Icon đen nền trắng" style="whiteSpace=wrap;html=1;fontSize=16;fillColor=#00CCCC;strokeColor=#666666;rounded=1;shadow=1;strokeWidth=1;" parent="1" vertex="1">
          <mxGeometry x="2428.5" y="-1204" width="120" height="60" as="geometry" />
        </mxCell>
        <mxCell id="cXpkJefbk4sWb7GXNzCY-137" value="" style="edgeStyle=orthogonalEdgeStyle;rounded=0;orthogonalLoop=1;jettySize=auto;html=1;" parent="1" source="cXpkJefbk4sWb7GXNzCY-139" target="cXpkJefbk4sWb7GXNzCY-141" edge="1">
          <mxGeometry relative="1" as="geometry" />
        </mxCell>
        <mxCell id="cXpkJefbk4sWb7GXNzCY-138" style="edgeStyle=orthogonalEdgeStyle;rounded=0;orthogonalLoop=1;jettySize=auto;html=1;exitX=1;exitY=0.75;exitDx=0;exitDy=0;entryX=0;entryY=0.5;entryDx=0;entryDy=0;" parent="1" source="cXpkJefbk4sWb7GXNzCY-139" target="cXpkJefbk4sWb7GXNzCY-142" edge="1">
          <mxGeometry relative="1" as="geometry" />
        </mxCell>
        <mxCell id="cXpkJefbk4sWb7GXNzCY-139" value="Active" style="whiteSpace=wrap;html=1;fontSize=16;fillColor=#f5f5f5;strokeColor=#666666;rounded=1;shadow=1;strokeWidth=1;" parent="1" vertex="1">
          <mxGeometry x="2428.5" y="-1108" width="120" height="60" as="geometry" />
        </mxCell>
        <mxCell id="cXpkJefbk4sWb7GXNzCY-140" value="Icon trắng nền đen" style="whiteSpace=wrap;html=1;fontSize=16;fillColor=#00CCCC;strokeColor=#666666;rounded=1;shadow=1;strokeWidth=1;" parent="1" vertex="1">
          <mxGeometry x="2223.5" y="-978" width="120" height="60" as="geometry" />
        </mxCell>
        <mxCell id="cXpkJefbk4sWb7GXNzCY-141" value="Icon trắng nền xám" style="whiteSpace=wrap;html=1;fontSize=16;fillColor=#00CCCC;strokeColor=#666666;rounded=1;shadow=1;strokeWidth=1;" parent="1" vertex="1">
          <mxGeometry x="2628.5" y="-1108" width="120" height="60" as="geometry" />
        </mxCell>
        <mxCell id="cXpkJefbk4sWb7GXNzCY-142" value="ND viền trắng" style="whiteSpace=wrap;html=1;fontSize=16;fillColor=#00CCCC;strokeColor=#666666;rounded=1;shadow=1;strokeWidth=1;" parent="1" vertex="1">
          <mxGeometry x="2628.5" y="-1028" width="120" height="60" as="geometry" />
        </mxCell>
        <mxCell id="cXpkJefbk4sWb7GXNzCY-205" style="edgeStyle=orthogonalEdgeStyle;rounded=0;orthogonalLoop=1;jettySize=auto;html=1;exitX=1;exitY=0.75;exitDx=0;exitDy=0;entryX=0;entryY=0.5;entryDx=0;entryDy=0;" parent="1" source="cXpkJefbk4sWb7GXNzCY-187" target="cXpkJefbk4sWb7GXNzCY-198" edge="1">
          <mxGeometry relative="1" as="geometry" />
        </mxCell>
        <mxCell id="cXpkJefbk4sWb7GXNzCY-206" style="edgeStyle=orthogonalEdgeStyle;rounded=0;orthogonalLoop=1;jettySize=auto;html=1;exitX=1;exitY=1;exitDx=0;exitDy=0;entryX=0;entryY=0.5;entryDx=0;entryDy=0;" parent="1" source="cXpkJefbk4sWb7GXNzCY-187" target="cXpkJefbk4sWb7GXNzCY-188" edge="1">
          <mxGeometry relative="1" as="geometry" />
        </mxCell>
        <mxCell id="cXpkJefbk4sWb7GXNzCY-217" style="edgeStyle=orthogonalEdgeStyle;rounded=0;orthogonalLoop=1;jettySize=auto;html=1;exitX=1;exitY=0.5;exitDx=0;exitDy=0;entryX=0;entryY=0.5;entryDx=0;entryDy=0;" parent="1" source="cXpkJefbk4sWb7GXNzCY-187" target="cXpkJefbk4sWb7GXNzCY-210" edge="1">
          <mxGeometry relative="1" as="geometry" />
        </mxCell>
        <mxCell id="cXpkJefbk4sWb7GXNzCY-218" style="edgeStyle=orthogonalEdgeStyle;rounded=0;orthogonalLoop=1;jettySize=auto;html=1;exitX=1;exitY=0.25;exitDx=0;exitDy=0;entryX=0;entryY=0.5;entryDx=0;entryDy=0;" parent="1" source="cXpkJefbk4sWb7GXNzCY-187" target="cXpkJefbk4sWb7GXNzCY-211" edge="1">
          <mxGeometry relative="1" as="geometry">
            <Array as="points">
              <mxPoint x="2160" y="-2545" />
              <mxPoint x="2160" y="-2675" />
            </Array>
          </mxGeometry>
        </mxCell>
        <mxCell id="cXpkJefbk4sWb7GXNzCY-219" style="edgeStyle=orthogonalEdgeStyle;rounded=0;orthogonalLoop=1;jettySize=auto;html=1;exitX=1;exitY=0;exitDx=0;exitDy=0;entryX=0;entryY=0.5;entryDx=0;entryDy=0;" parent="1" source="cXpkJefbk4sWb7GXNzCY-187" target="cXpkJefbk4sWb7GXNzCY-216" edge="1">
          <mxGeometry relative="1" as="geometry" />
        </mxCell>
        <mxCell id="cXpkJefbk4sWb7GXNzCY-187" value="Diễn biến trận đấu" style="whiteSpace=wrap;html=1;rounded=1;shadow=1;strokeWidth=1;fontSize=16;align=center;fillColor=#f5f5f5;strokeColor=#666666;" parent="1" vertex="1">
          <mxGeometry x="2001" y="-2565" width="125" height="80" as="geometry" />
        </mxCell>
        <mxCell id="cXpkJefbk4sWb7GXNzCY-207" value="" style="edgeStyle=orthogonalEdgeStyle;rounded=0;orthogonalLoop=1;jettySize=auto;html=1;" parent="1" edge="1">
          <mxGeometry relative="1" as="geometry">
            <mxPoint x="2347" y="-2257" as="sourcePoint" />
            <mxPoint x="2429.5" y="-2257" as="targetPoint" />
          </mxGeometry>
        </mxCell>
        <mxCell id="cXpkJefbk4sWb7GXNzCY-188" value="Label trạng thái hiệp đấu" style="whiteSpace=wrap;html=1;rounded=1;shadow=1;strokeWidth=1;fontSize=16;align=center;fillColor=#f5f5f5;strokeColor=#666666;" parent="1" vertex="1">
          <mxGeometry x="2222" y="-2265" width="125" height="50" as="geometry" />
        </mxCell>
        <mxCell id="cXpkJefbk4sWb7GXNzCY-195" value="5 Label" style="whiteSpace=wrap;html=1;fontSize=16;fillColor=#00CCCC;strokeColor=#666666;rounded=1;shadow=1;strokeWidth=1;" parent="1" vertex="1">
          <mxGeometry x="2429.5" y="-2270" width="120" height="60" as="geometry" />
        </mxCell>
        <mxCell id="cXpkJefbk4sWb7GXNzCY-197" style="edgeStyle=orthogonalEdgeStyle;rounded=0;orthogonalLoop=1;jettySize=auto;html=1;exitX=1;exitY=0.256;exitDx=0;exitDy=0;entryX=0;entryY=0.5;entryDx=0;entryDy=0;exitPerimeter=0;" parent="1" source="cXpkJefbk4sWb7GXNzCY-198" target="cXpkJefbk4sWb7GXNzCY-201" edge="1">
          <mxGeometry relative="1" as="geometry">
            <mxPoint x="2423.5" y="-2405" as="targetPoint" />
          </mxGeometry>
        </mxCell>
        <mxCell id="cXpkJefbk4sWb7GXNzCY-203" style="edgeStyle=orthogonalEdgeStyle;rounded=0;orthogonalLoop=1;jettySize=auto;html=1;exitX=1;exitY=0.75;exitDx=0;exitDy=0;entryX=0;entryY=0.5;entryDx=0;entryDy=0;" parent="1" source="cXpkJefbk4sWb7GXNzCY-198" target="cXpkJefbk4sWb7GXNzCY-202" edge="1">
          <mxGeometry relative="1" as="geometry" />
        </mxCell>
        <mxCell id="cXpkJefbk4sWb7GXNzCY-225" style="edgeStyle=orthogonalEdgeStyle;rounded=0;orthogonalLoop=1;jettySize=auto;html=1;exitX=1;exitY=0.5;exitDx=0;exitDy=0;" parent="1" source="cXpkJefbk4sWb7GXNzCY-198" target="cXpkJefbk4sWb7GXNzCY-224" edge="1">
          <mxGeometry relative="1" as="geometry" />
        </mxCell>
        <mxCell id="cXpkJefbk4sWb7GXNzCY-198" value="9 thông số" style="whiteSpace=wrap;html=1;rounded=1;shadow=1;strokeWidth=1;fontSize=16;align=center;fillColor=#f5f5f5;strokeColor=#666666;" parent="1" vertex="1">
          <mxGeometry x="2222" y="-2425.5" width="125" height="41" as="geometry" />
        </mxCell>
        <mxCell id="cXpkJefbk4sWb7GXNzCY-201" value="Không hiện thông số không có dữ liệu" style="whiteSpace=wrap;html=1;fontSize=16;fillColor=#00CCCC;strokeColor=#666666;rounded=1;shadow=1;strokeWidth=1;" parent="1" vertex="1">
          <mxGeometry x="2429.5" y="-2515" width="120" height="60" as="geometry" />
        </mxCell>
        <mxCell id="cXpkJefbk4sWb7GXNzCY-202" value="Scroll để xem thêm" style="whiteSpace=wrap;html=1;fontSize=16;fillColor=#00CCCC;strokeColor=#666666;rounded=1;shadow=1;strokeWidth=1;" parent="1" vertex="1">
          <mxGeometry x="2428.5" y="-2355" width="120" height="60" as="geometry" />
        </mxCell>
        <mxCell id="cXpkJefbk4sWb7GXNzCY-359" style="edgeStyle=orthogonalEdgeStyle;rounded=0;orthogonalLoop=1;jettySize=auto;html=1;exitX=0.5;exitY=1;exitDx=0;exitDy=0;entryX=0.5;entryY=0;entryDx=0;entryDy=0;" parent="1" source="cXpkJefbk4sWb7GXNzCY-208" target="cXpkJefbk4sWb7GXNzCY-351" edge="1">
          <mxGeometry relative="1" as="geometry" />
        </mxCell>
        <mxCell id="cXpkJefbk4sWb7GXNzCY-360" style="edgeStyle=orthogonalEdgeStyle;rounded=0;orthogonalLoop=1;jettySize=auto;html=1;exitX=0.75;exitY=1;exitDx=0;exitDy=0;entryX=0;entryY=0.5;entryDx=0;entryDy=0;" parent="1" source="cXpkJefbk4sWb7GXNzCY-208" target="cXpkJefbk4sWb7GXNzCY-349" edge="1">
          <mxGeometry relative="1" as="geometry" />
        </mxCell>
        <mxCell id="cXpkJefbk4sWb7GXNzCY-208" value="Player" style="whiteSpace=wrap;html=1;rounded=1;shadow=1;strokeWidth=1;fontSize=16;align=center;fillColor=#f5f5f5;strokeColor=#666666;" parent="1" vertex="1">
          <mxGeometry x="1280" y="430" width="200" height="40" as="geometry" />
        </mxCell>
        <mxCell id="cXpkJefbk4sWb7GXNzCY-214" value="" style="edgeStyle=orthogonalEdgeStyle;rounded=0;orthogonalLoop=1;jettySize=auto;html=1;" parent="1" source="cXpkJefbk4sWb7GXNzCY-210" target="cXpkJefbk4sWb7GXNzCY-213" edge="1">
          <mxGeometry relative="1" as="geometry" />
        </mxCell>
        <mxCell id="cXpkJefbk4sWb7GXNzCY-210" value="Hiển thị kết quả var" style="whiteSpace=wrap;html=1;rounded=1;shadow=1;strokeWidth=1;fontSize=16;align=center;fillColor=#f5f5f5;strokeColor=#666666;" parent="1" vertex="1">
          <mxGeometry x="2221" y="-2585" width="125" height="41" as="geometry" />
        </mxCell>
        <mxCell id="cXpkJefbk4sWb7GXNzCY-215" value="" style="edgeStyle=orthogonalEdgeStyle;rounded=0;orthogonalLoop=1;jettySize=auto;html=1;" parent="1" source="cXpkJefbk4sWb7GXNzCY-211" target="cXpkJefbk4sWb7GXNzCY-212" edge="1">
          <mxGeometry relative="1" as="geometry" />
        </mxCell>
        <mxCell id="cXpkJefbk4sWb7GXNzCY-211" value="Luân lưu" style="whiteSpace=wrap;html=1;rounded=1;shadow=1;strokeWidth=1;fontSize=16;align=center;fillColor=#f5f5f5;strokeColor=#666666;" parent="1" vertex="1">
          <mxGeometry x="2222" y="-2695" width="125" height="41" as="geometry" />
        </mxCell>
        <mxCell id="cXpkJefbk4sWb7GXNzCY-212" value="Không hiển thị thời gian" style="whiteSpace=wrap;html=1;fontSize=16;fillColor=#00CCCC;strokeColor=#666666;rounded=1;shadow=1;strokeWidth=1;" parent="1" vertex="1">
          <mxGeometry x="2428.5" y="-2704.5" width="120" height="60" as="geometry" />
        </mxCell>
        <mxCell id="cXpkJefbk4sWb7GXNzCY-213" value="11 thông số" style="whiteSpace=wrap;html=1;fontSize=16;fillColor=#00CCCC;strokeColor=#666666;rounded=1;shadow=1;strokeWidth=1;" parent="1" vertex="1">
          <mxGeometry x="2428.5" y="-2594.5" width="120" height="60" as="geometry" />
        </mxCell>
        <mxCell id="cXpkJefbk4sWb7GXNzCY-216" value="Thông tin mới nằm trên" style="whiteSpace=wrap;html=1;fontSize=16;fillColor=#00CCCC;strokeColor=#666666;rounded=1;shadow=1;strokeWidth=1;" parent="1" vertex="1">
          <mxGeometry x="2222.5" y="-2795" width="120" height="60" as="geometry" />
        </mxCell>
        <mxCell id="cXpkJefbk4sWb7GXNzCY-229" value="" style="edgeStyle=orthogonalEdgeStyle;rounded=0;orthogonalLoop=1;jettySize=auto;html=1;" parent="1" source="cXpkJefbk4sWb7GXNzCY-222" target="cXpkJefbk4sWb7GXNzCY-226" edge="1">
          <mxGeometry relative="1" as="geometry" />
        </mxCell>
        <mxCell id="cXpkJefbk4sWb7GXNzCY-222" value="Hover qua Label hiệp" style="whiteSpace=wrap;html=1;fontSize=16;fillColor=#f5f5f5;strokeColor=#666666;rounded=1;shadow=1;strokeWidth=1;arcSize=50;" parent="1" vertex="1">
          <mxGeometry x="2440" y="1520" width="120" height="60" as="geometry" />
        </mxCell>
        <mxCell id="cXpkJefbk4sWb7GXNzCY-224" value="Icon" style="whiteSpace=wrap;html=1;fontSize=16;fillColor=#00CCCC;strokeColor=#666666;rounded=1;shadow=1;strokeWidth=1;" parent="1" vertex="1">
          <mxGeometry x="2428.5" y="-2435" width="120" height="60" as="geometry" />
        </mxCell>
        <mxCell id="cXpkJefbk4sWb7GXNzCY-226" value="Hiệp được neo dưới Scoreboard" style="whiteSpace=wrap;html=1;rounded=1;shadow=1;strokeWidth=1;fontSize=16;align=center;fillColor=#f5f5f5;strokeColor=#666666;" parent="1" vertex="1">
          <mxGeometry x="2400" y="1640" width="200" height="40" as="geometry" />
        </mxCell>
        <mxCell id="cXpkJefbk4sWb7GXNzCY-232" value="" style="edgeStyle=orthogonalEdgeStyle;rounded=0;orthogonalLoop=1;jettySize=auto;html=1;" parent="1" source="cXpkJefbk4sWb7GXNzCY-233" target="cXpkJefbk4sWb7GXNzCY-234" edge="1">
          <mxGeometry relative="1" as="geometry" />
        </mxCell>
        <mxCell id="cXpkJefbk4sWb7GXNzCY-233" value="Hover tiếp" style="whiteSpace=wrap;html=1;fontSize=16;fillColor=#f5f5f5;strokeColor=#666666;rounded=1;shadow=1;strokeWidth=1;arcSize=50;" parent="1" vertex="1">
          <mxGeometry x="2160" y="1520" width="120" height="60" as="geometry" />
        </mxCell>
        <mxCell id="cXpkJefbk4sWb7GXNzCY-234" value="Điểm scroll ở giữa" style="whiteSpace=wrap;html=1;rounded=1;shadow=1;strokeWidth=1;fontSize=16;align=center;fillColor=#f5f5f5;strokeColor=#666666;" parent="1" vertex="1">
          <mxGeometry x="2120" y="1640" width="200" height="40" as="geometry" />
        </mxCell>
        <mxCell id="cXpkJefbk4sWb7GXNzCY-235" value="" style="edgeStyle=orthogonalEdgeStyle;rounded=0;orthogonalLoop=1;jettySize=auto;html=1;" parent="1" source="cXpkJefbk4sWb7GXNzCY-236" target="cXpkJefbk4sWb7GXNzCY-237" edge="1">
          <mxGeometry relative="1" as="geometry" />
        </mxCell>
        <mxCell id="cXpkJefbk4sWb7GXNzCY-236" value="Bấm hover 2" style="whiteSpace=wrap;html=1;fontSize=16;fillColor=#f5f5f5;strokeColor=#666666;rounded=1;shadow=1;strokeWidth=1;arcSize=50;" parent="1" vertex="1">
          <mxGeometry x="1920" y="1520" width="120" height="60" as="geometry" />
        </mxCell>
        <mxCell id="cXpkJefbk4sWb7GXNzCY-237" value="Ẩn DS ghi bàn" style="whiteSpace=wrap;html=1;rounded=1;shadow=1;strokeWidth=1;fontSize=16;align=center;fillColor=#f5f5f5;strokeColor=#666666;" parent="1" vertex="1">
          <mxGeometry x="1880" y="1640" width="200" height="40" as="geometry" />
        </mxCell>
        <mxCell id="cXpkJefbk4sWb7GXNzCY-238" value="" style="edgeStyle=orthogonalEdgeStyle;rounded=0;orthogonalLoop=1;jettySize=auto;html=1;" parent="1" source="cXpkJefbk4sWb7GXNzCY-239" target="cXpkJefbk4sWb7GXNzCY-240" edge="1">
          <mxGeometry relative="1" as="geometry" />
        </mxCell>
        <mxCell id="cXpkJefbk4sWb7GXNzCY-239" value="Hết dữ liệu" style="whiteSpace=wrap;html=1;fontSize=16;fillColor=#f5f5f5;strokeColor=#666666;rounded=1;shadow=1;strokeWidth=1;arcSize=50;" parent="1" vertex="1">
          <mxGeometry x="2680" y="1520" width="120" height="60" as="geometry" />
        </mxCell>
        <mxCell id="cXpkJefbk4sWb7GXNzCY-240" value="Hover scroll theo dữ liệu" style="whiteSpace=wrap;html=1;rounded=1;shadow=1;strokeWidth=1;fontSize=16;align=center;fillColor=#f5f5f5;strokeColor=#666666;" parent="1" vertex="1">
          <mxGeometry x="2640" y="1640" width="200" height="40" as="geometry" />
        </mxCell>
        <mxCell id="cXpkJefbk4sWb7GXNzCY-280" value="" style="edgeStyle=orthogonalEdgeStyle;rounded=0;orthogonalLoop=1;jettySize=auto;html=1;" parent="1" source="cXpkJefbk4sWb7GXNzCY-273" target="cXpkJefbk4sWb7GXNzCY-52" edge="1">
          <mxGeometry relative="1" as="geometry" />
        </mxCell>
        <mxCell id="cXpkJefbk4sWb7GXNzCY-575" style="edgeStyle=orthogonalEdgeStyle;rounded=0;orthogonalLoop=1;jettySize=auto;html=1;exitX=1;exitY=0.75;exitDx=0;exitDy=0;entryX=0;entryY=0.5;entryDx=0;entryDy=0;" parent="1" source="cXpkJefbk4sWb7GXNzCY-273" target="cXpkJefbk4sWb7GXNzCY-48" edge="1">
          <mxGeometry relative="1" as="geometry" />
        </mxCell>
        <mxCell id="cXpkJefbk4sWb7GXNzCY-576" style="edgeStyle=orthogonalEdgeStyle;rounded=0;orthogonalLoop=1;jettySize=auto;html=1;exitX=1;exitY=0.25;exitDx=0;exitDy=0;entryX=0;entryY=0.5;entryDx=0;entryDy=0;" parent="1" source="cXpkJefbk4sWb7GXNzCY-273" target="cXpkJefbk4sWb7GXNzCY-574" edge="1">
          <mxGeometry relative="1" as="geometry" />
        </mxCell>
        <mxCell id="cXpkJefbk4sWb7GXNzCY-273" value="Vào Datafeed" style="whiteSpace=wrap;html=1;rounded=1;shadow=1;strokeWidth=1;fontSize=16;align=center;fillColor=#f5f5f5;strokeColor=#666666;" parent="1" vertex="1">
          <mxGeometry x="1520" y="960" width="200" height="40" as="geometry" />
        </mxCell>
        <mxCell id="cXpkJefbk4sWb7GXNzCY-283" value="" style="edgeStyle=orthogonalEdgeStyle;rounded=0;orthogonalLoop=1;jettySize=auto;html=1;" parent="1" source="cXpkJefbk4sWb7GXNzCY-284" target="cXpkJefbk4sWb7GXNzCY-285" edge="1">
          <mxGeometry relative="1" as="geometry" />
        </mxCell>
        <mxCell id="cXpkJefbk4sWb7GXNzCY-284" value="Hover tiếp" style="whiteSpace=wrap;html=1;fontSize=16;fillColor=#f5f5f5;strokeColor=#666666;rounded=1;shadow=1;strokeWidth=1;arcSize=50;" parent="1" vertex="1">
          <mxGeometry x="1440" y="1520" width="120" height="60" as="geometry" />
        </mxCell>
        <mxCell id="cXpkJefbk4sWb7GXNzCY-285" value="Điểm scroll ở giữa" style="whiteSpace=wrap;html=1;rounded=1;shadow=1;strokeWidth=1;fontSize=16;align=center;fillColor=#f5f5f5;strokeColor=#666666;" parent="1" vertex="1">
          <mxGeometry x="1400" y="1640" width="200" height="40" as="geometry" />
        </mxCell>
        <mxCell id="cXpkJefbk4sWb7GXNzCY-286" value="" style="edgeStyle=orthogonalEdgeStyle;rounded=0;orthogonalLoop=1;jettySize=auto;html=1;" parent="1" source="cXpkJefbk4sWb7GXNzCY-287" target="cXpkJefbk4sWb7GXNzCY-288" edge="1">
          <mxGeometry relative="1" as="geometry" />
        </mxCell>
        <mxCell id="cXpkJefbk4sWb7GXNzCY-287" value="Hết dữ liệu" style="whiteSpace=wrap;html=1;fontSize=16;fillColor=#f5f5f5;strokeColor=#666666;rounded=1;shadow=1;strokeWidth=1;arcSize=50;" parent="1" vertex="1">
          <mxGeometry x="1680" y="1520" width="120" height="60" as="geometry" />
        </mxCell>
        <mxCell id="cXpkJefbk4sWb7GXNzCY-288" value="Hover scroll theo dữ liệu" style="whiteSpace=wrap;html=1;rounded=1;shadow=1;strokeWidth=1;fontSize=16;align=center;fillColor=#f5f5f5;strokeColor=#666666;" parent="1" vertex="1">
          <mxGeometry x="1640" y="1640" width="200" height="40" as="geometry" />
        </mxCell>
        <mxCell id="cXpkJefbk4sWb7GXNzCY-541" style="edgeStyle=orthogonalEdgeStyle;rounded=0;orthogonalLoop=1;jettySize=auto;html=1;exitX=0.75;exitY=1;exitDx=0;exitDy=0;entryX=0.5;entryY=0;entryDx=0;entryDy=0;" parent="1" source="cXpkJefbk4sWb7GXNzCY-311" target="cXpkJefbk4sWb7GXNzCY-514" edge="1">
          <mxGeometry relative="1" as="geometry" />
        </mxCell>
        <mxCell id="cXpkJefbk4sWb7GXNzCY-311" value="Đội hình" style="whiteSpace=wrap;html=1;rounded=1;shadow=1;strokeWidth=1;fontSize=16;align=center;fillColor=#f5f5f5;strokeColor=#666666;" parent="1" vertex="1">
          <mxGeometry x="960" y="1200" width="200" height="40" as="geometry" />
        </mxCell>
        <mxCell id="cXpkJefbk4sWb7GXNzCY-312" value="" style="edgeStyle=orthogonalEdgeStyle;rounded=0;orthogonalLoop=1;jettySize=auto;html=1;" parent="1" source="cXpkJefbk4sWb7GXNzCY-313" target="cXpkJefbk4sWb7GXNzCY-314" edge="1">
          <mxGeometry relative="1" as="geometry" />
        </mxCell>
        <mxCell id="cXpkJefbk4sWb7GXNzCY-313" value="Hover tiếp" style="whiteSpace=wrap;html=1;fontSize=16;fillColor=#f5f5f5;strokeColor=#666666;rounded=1;shadow=1;strokeWidth=1;arcSize=50;" parent="1" vertex="1">
          <mxGeometry x="880" y="1520" width="120" height="60" as="geometry" />
        </mxCell>
        <mxCell id="cXpkJefbk4sWb7GXNzCY-314" value="Điểm scroll ở giữa" style="whiteSpace=wrap;html=1;rounded=1;shadow=1;strokeWidth=1;fontSize=16;align=center;fillColor=#f5f5f5;strokeColor=#666666;" parent="1" vertex="1">
          <mxGeometry x="840" y="1640" width="200" height="40" as="geometry" />
        </mxCell>
        <mxCell id="cXpkJefbk4sWb7GXNzCY-315" value="" style="edgeStyle=orthogonalEdgeStyle;rounded=0;orthogonalLoop=1;jettySize=auto;html=1;" parent="1" source="cXpkJefbk4sWb7GXNzCY-316" target="cXpkJefbk4sWb7GXNzCY-317" edge="1">
          <mxGeometry relative="1" as="geometry" />
        </mxCell>
        <mxCell id="cXpkJefbk4sWb7GXNzCY-316" value="Hết dữ liệu" style="whiteSpace=wrap;html=1;fontSize=16;fillColor=#f5f5f5;strokeColor=#666666;rounded=1;shadow=1;strokeWidth=1;arcSize=50;" parent="1" vertex="1">
          <mxGeometry x="1120" y="1520" width="120" height="60" as="geometry" />
        </mxCell>
        <mxCell id="cXpkJefbk4sWb7GXNzCY-317" value="Hover scroll theo dữ liệu" style="whiteSpace=wrap;html=1;rounded=1;shadow=1;strokeWidth=1;fontSize=16;align=center;fillColor=#f5f5f5;strokeColor=#666666;" parent="1" vertex="1">
          <mxGeometry x="1080" y="1640" width="200" height="40" as="geometry" />
        </mxCell>
        <mxCell id="cXpkJefbk4sWb7GXNzCY-510" style="edgeStyle=orthogonalEdgeStyle;rounded=0;orthogonalLoop=1;jettySize=auto;html=1;exitX=0;exitY=0.5;exitDx=0;exitDy=0;entryX=0.5;entryY=0;entryDx=0;entryDy=0;" parent="1" source="cXpkJefbk4sWb7GXNzCY-320" target="cXpkJefbk4sWb7GXNzCY-502" edge="1">
          <mxGeometry relative="1" as="geometry" />
        </mxCell>
        <mxCell id="cXpkJefbk4sWb7GXNzCY-320" value="Livescore" style="whiteSpace=wrap;html=1;rounded=1;shadow=1;strokeWidth=1;fontSize=16;align=center;fillColor=#f5f5f5;strokeColor=#666666;" parent="1" vertex="1">
          <mxGeometry x="440" y="1200" width="200" height="40" as="geometry" />
        </mxCell>
        <mxCell id="cXpkJefbk4sWb7GXNzCY-321" value="" style="edgeStyle=orthogonalEdgeStyle;rounded=0;orthogonalLoop=1;jettySize=auto;html=1;" parent="1" source="cXpkJefbk4sWb7GXNzCY-322" target="cXpkJefbk4sWb7GXNzCY-323" edge="1">
          <mxGeometry relative="1" as="geometry" />
        </mxCell>
        <mxCell id="cXpkJefbk4sWb7GXNzCY-322" value="Hover tiếp" style="whiteSpace=wrap;html=1;fontSize=16;fillColor=#f5f5f5;strokeColor=#666666;rounded=1;shadow=1;strokeWidth=1;arcSize=50;" parent="1" vertex="1">
          <mxGeometry x="360" y="1520" width="120" height="60" as="geometry" />
        </mxCell>
        <mxCell id="cXpkJefbk4sWb7GXNzCY-323" value="Điểm scroll ở giữa" style="whiteSpace=wrap;html=1;rounded=1;shadow=1;strokeWidth=1;fontSize=16;align=center;fillColor=#f5f5f5;strokeColor=#666666;" parent="1" vertex="1">
          <mxGeometry x="320" y="1640" width="200" height="40" as="geometry" />
        </mxCell>
        <mxCell id="cXpkJefbk4sWb7GXNzCY-324" value="" style="edgeStyle=orthogonalEdgeStyle;rounded=0;orthogonalLoop=1;jettySize=auto;html=1;" parent="1" source="cXpkJefbk4sWb7GXNzCY-325" target="cXpkJefbk4sWb7GXNzCY-326" edge="1">
          <mxGeometry relative="1" as="geometry" />
        </mxCell>
        <mxCell id="cXpkJefbk4sWb7GXNzCY-325" value="Hết dữ liệu" style="whiteSpace=wrap;html=1;fontSize=16;fillColor=#f5f5f5;strokeColor=#666666;rounded=1;shadow=1;strokeWidth=1;arcSize=50;" parent="1" vertex="1">
          <mxGeometry x="600" y="1520" width="120" height="60" as="geometry" />
        </mxCell>
        <mxCell id="cXpkJefbk4sWb7GXNzCY-326" value="Hover scroll theo dữ liệu" style="whiteSpace=wrap;html=1;rounded=1;shadow=1;strokeWidth=1;fontSize=16;align=center;fillColor=#f5f5f5;strokeColor=#666666;" parent="1" vertex="1">
          <mxGeometry x="560" y="1640" width="200" height="40" as="geometry" />
        </mxCell>
        <mxCell id="cXpkJefbk4sWb7GXNzCY-335" value="" style="edgeStyle=orthogonalEdgeStyle;rounded=0;orthogonalLoop=1;jettySize=auto;html=1;" parent="1" source="cXpkJefbk4sWb7GXNzCY-327" target="cXpkJefbk4sWb7GXNzCY-330" edge="1">
          <mxGeometry relative="1" as="geometry" />
        </mxCell>
        <mxCell id="cXpkJefbk4sWb7GXNzCY-327" value="Không có nút Play" style="whiteSpace=wrap;html=1;fontSize=16;fillColor=#f5f5f5;strokeColor=#666666;rounded=1;shadow=1;strokeWidth=1;arcSize=50;" parent="1" vertex="1">
          <mxGeometry x="160" y="1630" width="120" height="60" as="geometry" />
        </mxCell>
        <mxCell id="cXpkJefbk4sWb7GXNzCY-332" style="edgeStyle=orthogonalEdgeStyle;rounded=0;orthogonalLoop=1;jettySize=auto;html=1;exitX=0.75;exitY=1;exitDx=0;exitDy=0;" parent="1" source="cXpkJefbk4sWb7GXNzCY-328" target="cXpkJefbk4sWb7GXNzCY-327" edge="1">
          <mxGeometry relative="1" as="geometry" />
        </mxCell>
        <mxCell id="cXpkJefbk4sWb7GXNzCY-333" style="edgeStyle=orthogonalEdgeStyle;rounded=0;orthogonalLoop=1;jettySize=auto;html=1;exitX=0.25;exitY=1;exitDx=0;exitDy=0;entryX=0.5;entryY=0;entryDx=0;entryDy=0;" parent="1" source="cXpkJefbk4sWb7GXNzCY-328" target="cXpkJefbk4sWb7GXNzCY-329" edge="1">
          <mxGeometry relative="1" as="geometry" />
        </mxCell>
        <mxCell id="cXpkJefbk4sWb7GXNzCY-328" value="Bấm vào sự kiện" style="whiteSpace=wrap;html=1;rounded=1;shadow=1;strokeWidth=1;fontSize=16;align=center;fillColor=#f5f5f5;strokeColor=#666666;" parent="1" vertex="1">
          <mxGeometry y="1520" width="200" height="40" as="geometry" />
        </mxCell>
        <mxCell id="cXpkJefbk4sWb7GXNzCY-334" style="edgeStyle=orthogonalEdgeStyle;rounded=0;orthogonalLoop=1;jettySize=auto;html=1;exitX=0.5;exitY=1;exitDx=0;exitDy=0;entryX=0.5;entryY=0;entryDx=0;entryDy=0;" parent="1" source="cXpkJefbk4sWb7GXNzCY-329" target="cXpkJefbk4sWb7GXNzCY-331" edge="1">
          <mxGeometry relative="1" as="geometry" />
        </mxCell>
        <mxCell id="cXpkJefbk4sWb7GXNzCY-329" value="Có nút Play" style="whiteSpace=wrap;html=1;fontSize=16;fillColor=#f5f5f5;strokeColor=#666666;rounded=1;shadow=1;strokeWidth=1;arcSize=50;" parent="1" vertex="1">
          <mxGeometry x="-80" y="1630" width="120" height="60" as="geometry" />
        </mxCell>
        <mxCell id="cXpkJefbk4sWb7GXNzCY-330" value="Không có gì xảy ra" style="whiteSpace=wrap;html=1;rounded=1;shadow=1;strokeWidth=1;fontSize=16;align=center;fillColor=#f5f5f5;strokeColor=#666666;" parent="1" vertex="1">
          <mxGeometry x="120" y="1759" width="200" height="40" as="geometry" />
        </mxCell>
        <mxCell id="cXpkJefbk4sWb7GXNzCY-331" value="Mở Player trận đấu đó" style="whiteSpace=wrap;html=1;rounded=1;shadow=1;strokeWidth=1;fontSize=16;align=center;fillColor=#f5f5f5;strokeColor=#666666;" parent="1" vertex="1">
          <mxGeometry x="-120" y="1759" width="200" height="40" as="geometry" />
        </mxCell>
        <mxCell id="cXpkJefbk4sWb7GXNzCY-341" style="edgeStyle=orthogonalEdgeStyle;rounded=0;orthogonalLoop=1;jettySize=auto;html=1;exitX=0.5;exitY=1;exitDx=0;exitDy=0;" parent="1" source="cXpkJefbk4sWb7GXNzCY-58" target="cXpkJefbk4sWb7GXNzCY-58" edge="1">
          <mxGeometry relative="1" as="geometry" />
        </mxCell>
        <mxCell id="cXpkJefbk4sWb7GXNzCY-342" value="" style="endArrow=none;dashed=1;html=1;rounded=0;exitX=0;exitY=0.5;exitDx=0;exitDy=0;entryX=0.5;entryY=1;entryDx=0;entryDy=0;" parent="1" source="cXpkJefbk4sWb7GXNzCY-56" target="cXpkJefbk4sWb7GXNzCY-320" edge="1">
          <mxGeometry width="50" height="50" relative="1" as="geometry">
            <mxPoint x="850" y="1600" as="sourcePoint" />
            <mxPoint x="900" y="1550" as="targetPoint" />
            <Array as="points">
              <mxPoint x="540" y="1830" />
            </Array>
          </mxGeometry>
        </mxCell>
        <mxCell id="cXpkJefbk4sWb7GXNzCY-343" value="" style="endArrow=none;dashed=1;html=1;rounded=0;exitX=0;exitY=0.5;exitDx=0;exitDy=0;entryX=0.5;entryY=1;entryDx=0;entryDy=0;" parent="1" source="cXpkJefbk4sWb7GXNzCY-56" target="cXpkJefbk4sWb7GXNzCY-311" edge="1">
          <mxGeometry width="50" height="50" relative="1" as="geometry">
            <mxPoint x="1920" y="1799" as="sourcePoint" />
            <mxPoint x="1060" y="1329" as="targetPoint" />
            <Array as="points">
              <mxPoint x="1060" y="1830" />
            </Array>
          </mxGeometry>
        </mxCell>
        <mxCell id="cXpkJefbk4sWb7GXNzCY-344" value="" style="endArrow=none;dashed=1;html=1;rounded=0;exitX=1;exitY=0.5;exitDx=0;exitDy=0;entryX=0.5;entryY=1;entryDx=0;entryDy=0;" parent="1" source="cXpkJefbk4sWb7GXNzCY-56" target="cXpkJefbk4sWb7GXNzCY-46" edge="1">
          <mxGeometry width="50" height="50" relative="1" as="geometry">
            <mxPoint x="2500" y="1871" as="sourcePoint" />
            <mxPoint x="1640" y="1401" as="targetPoint" />
            <Array as="points">
              <mxPoint x="1610" y="1830" />
            </Array>
          </mxGeometry>
        </mxCell>
        <mxCell id="cXpkJefbk4sWb7GXNzCY-345" value="" style="endArrow=none;dashed=1;html=1;rounded=0;exitX=1;exitY=0.5;exitDx=0;exitDy=0;entryX=0.5;entryY=1;entryDx=0;entryDy=0;" parent="1" source="cXpkJefbk4sWb7GXNzCY-56" target="cXpkJefbk4sWb7GXNzCY-507" edge="1">
          <mxGeometry width="50" height="50" relative="1" as="geometry">
            <mxPoint x="2780" y="1890" as="sourcePoint" />
            <mxPoint x="2380" y="1320" as="targetPoint" />
            <Array as="points">
              <mxPoint x="2380" y="1830" />
            </Array>
          </mxGeometry>
        </mxCell>
        <mxCell id="cXpkJefbk4sWb7GXNzCY-461" style="edgeStyle=orthogonalEdgeStyle;rounded=0;orthogonalLoop=1;jettySize=auto;html=1;exitX=0;exitY=0.25;exitDx=0;exitDy=0;entryX=1;entryY=0.5;entryDx=0;entryDy=0;" parent="1" source="cXpkJefbk4sWb7GXNzCY-346" target="cXpkJefbk4sWb7GXNzCY-367" edge="1">
          <mxGeometry relative="1" as="geometry" />
        </mxCell>
        <mxCell id="cXpkJefbk4sWb7GXNzCY-462" style="edgeStyle=orthogonalEdgeStyle;rounded=0;orthogonalLoop=1;jettySize=auto;html=1;exitX=0;exitY=0.75;exitDx=0;exitDy=0;entryX=1;entryY=0.5;entryDx=0;entryDy=0;" parent="1" source="cXpkJefbk4sWb7GXNzCY-346" target="cXpkJefbk4sWb7GXNzCY-404" edge="1">
          <mxGeometry relative="1" as="geometry" />
        </mxCell>
        <mxCell id="cXpkJefbk4sWb7GXNzCY-567" style="edgeStyle=orthogonalEdgeStyle;rounded=0;orthogonalLoop=1;jettySize=auto;html=1;exitX=0.5;exitY=0;exitDx=0;exitDy=0;entryX=0.5;entryY=1;entryDx=0;entryDy=0;" parent="1" source="cXpkJefbk4sWb7GXNzCY-346" target="cXpkJefbk4sWb7GXNzCY-440" edge="1">
          <mxGeometry relative="1" as="geometry" />
        </mxCell>
        <mxCell id="cXpkJefbk4sWb7GXNzCY-346" value="Đội hình" style="whiteSpace=wrap;html=1;rounded=1;shadow=1;strokeWidth=1;fontSize=16;align=center;fillColor=#f5f5f5;strokeColor=#666666;" parent="1" vertex="1">
          <mxGeometry x="1000" y="-600" width="200" height="40" as="geometry" />
        </mxCell>
        <mxCell id="cXpkJefbk4sWb7GXNzCY-361" style="edgeStyle=orthogonalEdgeStyle;rounded=0;orthogonalLoop=1;jettySize=auto;html=1;exitX=0.5;exitY=1;exitDx=0;exitDy=0;entryX=0.5;entryY=0;entryDx=0;entryDy=0;" parent="1" source="cXpkJefbk4sWb7GXNzCY-349" target="cXpkJefbk4sWb7GXNzCY-273" edge="1">
          <mxGeometry relative="1" as="geometry" />
        </mxCell>
        <mxCell id="cXpkJefbk4sWb7GXNzCY-349" value="Chọn &quot;Dữ liệu&quot;" style="whiteSpace=wrap;html=1;fontSize=16;fillColor=#f5f5f5;strokeColor=#666666;rounded=1;shadow=1;strokeWidth=1;arcSize=50;" parent="1" vertex="1">
          <mxGeometry x="1560" y="550" width="120" height="60" as="geometry" />
        </mxCell>
        <mxCell id="cXpkJefbk4sWb7GXNzCY-352" value="" style="edgeStyle=orthogonalEdgeStyle;rounded=0;orthogonalLoop=1;jettySize=auto;html=1;" parent="1" source="cXpkJefbk4sWb7GXNzCY-351" target="cXpkJefbk4sWb7GXNzCY-38" edge="1">
          <mxGeometry relative="1" as="geometry" />
        </mxCell>
        <mxCell id="cXpkJefbk4sWb7GXNzCY-351" value="Không chọn &quot;Dữ liệu&quot; 15p" style="whiteSpace=wrap;html=1;fontSize=16;fillColor=#f5f5f5;strokeColor=#666666;rounded=1;shadow=1;strokeWidth=1;arcSize=50;" parent="1" vertex="1">
          <mxGeometry x="1320" y="640" width="120" height="60" as="geometry" />
        </mxCell>
        <mxCell id="cXpkJefbk4sWb7GXNzCY-355" value="&lt;font style=&quot;font-size: 18px;&quot;&gt;Bar không hiển thị lại trong 7 ngày&lt;/font&gt;" style="ellipse;whiteSpace=wrap;html=1;" parent="1" vertex="1">
          <mxGeometry x="1302.5" y="935" width="155" height="90" as="geometry" />
        </mxCell>
        <mxCell id="cXpkJefbk4sWb7GXNzCY-363" value="Chính xác" style="whiteSpace=wrap;html=1;fontSize=16;fillColor=#00CCCC;strokeColor=#666666;rounded=1;shadow=1;strokeWidth=1;" parent="1" vertex="1">
          <mxGeometry x="2421" y="-893" width="120" height="60" as="geometry" />
        </mxCell>
        <mxCell id="cXpkJefbk4sWb7GXNzCY-398" style="edgeStyle=orthogonalEdgeStyle;rounded=0;orthogonalLoop=1;jettySize=auto;html=1;exitX=0;exitY=0.75;exitDx=0;exitDy=0;entryX=1;entryY=0.5;entryDx=0;entryDy=0;" parent="1" source="cXpkJefbk4sWb7GXNzCY-367" target="cXpkJefbk4sWb7GXNzCY-397" edge="1">
          <mxGeometry relative="1" as="geometry">
            <mxPoint x="701.5" y="-680" as="sourcePoint" />
          </mxGeometry>
        </mxCell>
        <mxCell id="cXpkJefbk4sWb7GXNzCY-399" style="edgeStyle=orthogonalEdgeStyle;rounded=0;orthogonalLoop=1;jettySize=auto;html=1;exitX=0;exitY=0.5;exitDx=0;exitDy=0;entryX=1;entryY=0.5;entryDx=0;entryDy=0;" parent="1" source="cXpkJefbk4sWb7GXNzCY-367" target="cXpkJefbk4sWb7GXNzCY-373" edge="1">
          <mxGeometry relative="1" as="geometry">
            <mxPoint x="701.5" y="-700" as="sourcePoint" />
          </mxGeometry>
        </mxCell>
        <mxCell id="cXpkJefbk4sWb7GXNzCY-400" style="edgeStyle=orthogonalEdgeStyle;rounded=0;orthogonalLoop=1;jettySize=auto;html=1;exitX=0;exitY=0.25;exitDx=0;exitDy=0;entryX=1;entryY=0.5;entryDx=0;entryDy=0;" parent="1" source="cXpkJefbk4sWb7GXNzCY-367" target="cXpkJefbk4sWb7GXNzCY-372" edge="1">
          <mxGeometry relative="1" as="geometry">
            <mxPoint x="701.5" y="-720" as="sourcePoint" />
          </mxGeometry>
        </mxCell>
        <mxCell id="cXpkJefbk4sWb7GXNzCY-367" value="Scoreboard" style="whiteSpace=wrap;html=1;rounded=1;shadow=1;strokeWidth=1;fontSize=16;align=center;fillColor=#f5f5f5;strokeColor=#666666;" parent="1" vertex="1">
          <mxGeometry x="720" y="-740" width="125" height="80" as="geometry" />
        </mxCell>
        <mxCell id="cXpkJefbk4sWb7GXNzCY-401" style="edgeStyle=orthogonalEdgeStyle;rounded=0;orthogonalLoop=1;jettySize=auto;html=1;exitX=0;exitY=0.75;exitDx=0;exitDy=0;entryX=1;entryY=0.5;entryDx=0;entryDy=0;" parent="1" source="cXpkJefbk4sWb7GXNzCY-370" target="cXpkJefbk4sWb7GXNzCY-395" edge="1">
          <mxGeometry relative="1" as="geometry" />
        </mxCell>
        <mxCell id="cXpkJefbk4sWb7GXNzCY-402" style="edgeStyle=orthogonalEdgeStyle;rounded=0;orthogonalLoop=1;jettySize=auto;html=1;exitX=0;exitY=0.25;exitDx=0;exitDy=0;entryX=1;entryY=0.5;entryDx=0;entryDy=0;" parent="1" source="cXpkJefbk4sWb7GXNzCY-370" target="cXpkJefbk4sWb7GXNzCY-396" edge="1">
          <mxGeometry relative="1" as="geometry" />
        </mxCell>
        <mxCell id="cXpkJefbk4sWb7GXNzCY-370" value="Scroll" style="whiteSpace=wrap;html=1;rounded=1;shadow=1;strokeWidth=1;fontSize=16;align=center;fillColor=#f5f5f5;strokeColor=#666666;" parent="1" vertex="1">
          <mxGeometry x="720" y="-1426" width="125" height="80" as="geometry" />
        </mxCell>
        <mxCell id="cXpkJefbk4sWb7GXNzCY-371" value="Header" style="whiteSpace=wrap;html=1;rounded=1;shadow=1;strokeWidth=1;fontSize=16;align=center;fillColor=#f5f5f5;strokeColor=#666666;" parent="1" vertex="1">
          <mxGeometry x="720" y="-1270" width="125" height="80" as="geometry" />
        </mxCell>
        <mxCell id="cXpkJefbk4sWb7GXNzCY-372" value="Logo" style="whiteSpace=wrap;html=1;rounded=1;shadow=1;strokeWidth=1;fontSize=16;align=center;fillColor=#f5f5f5;strokeColor=#666666;" parent="1" vertex="1">
          <mxGeometry x="517.5" y="-790" width="125" height="41" as="geometry" />
        </mxCell>
        <mxCell id="cXpkJefbk4sWb7GXNzCY-373" value="Tên đội" style="whiteSpace=wrap;html=1;rounded=1;shadow=1;strokeWidth=1;fontSize=16;align=center;fillColor=#f5f5f5;strokeColor=#666666;" parent="1" vertex="1">
          <mxGeometry x="517.5" y="-720.5" width="125" height="41" as="geometry" />
        </mxCell>
        <mxCell id="cXpkJefbk4sWb7GXNzCY-395" value="Không có thanh cuộn" style="whiteSpace=wrap;html=1;fontSize=16;fillColor=#00CCCC;strokeColor=#666666;rounded=1;shadow=1;strokeWidth=1;" parent="1" vertex="1">
          <mxGeometry x="543" y="-1376" width="120" height="60" as="geometry" />
        </mxCell>
        <mxCell id="cXpkJefbk4sWb7GXNzCY-396" value="Chỉ cuộn dữ liệu trong" style="whiteSpace=wrap;html=1;fontSize=16;fillColor=#00CCCC;strokeColor=#666666;rounded=1;shadow=1;strokeWidth=1;" parent="1" vertex="1">
          <mxGeometry x="543" y="-1463" width="120" height="60" as="geometry" />
        </mxCell>
        <mxCell id="cXpkJefbk4sWb7GXNzCY-397" value="Tên huấn luyện viên" style="whiteSpace=wrap;html=1;rounded=1;shadow=1;strokeWidth=1;fontSize=16;align=center;fillColor=#f5f5f5;strokeColor=#666666;" parent="1" vertex="1">
          <mxGeometry x="517.5" y="-651" width="125" height="41" as="geometry" />
        </mxCell>
        <mxCell id="cXpkJefbk4sWb7GXNzCY-434" value="" style="edgeStyle=orthogonalEdgeStyle;rounded=0;orthogonalLoop=1;jettySize=auto;html=1;" parent="1" source="cXpkJefbk4sWb7GXNzCY-404" target="cXpkJefbk4sWb7GXNzCY-406" edge="1">
          <mxGeometry relative="1" as="geometry" />
        </mxCell>
        <mxCell id="cXpkJefbk4sWb7GXNzCY-435" style="edgeStyle=orthogonalEdgeStyle;rounded=0;orthogonalLoop=1;jettySize=auto;html=1;exitX=0;exitY=0.25;exitDx=0;exitDy=0;entryX=1;entryY=0.5;entryDx=0;entryDy=0;" parent="1" source="cXpkJefbk4sWb7GXNzCY-404" target="cXpkJefbk4sWb7GXNzCY-405" edge="1">
          <mxGeometry relative="1" as="geometry" />
        </mxCell>
        <mxCell id="cXpkJefbk4sWb7GXNzCY-436" style="edgeStyle=orthogonalEdgeStyle;rounded=0;orthogonalLoop=1;jettySize=auto;html=1;exitX=0;exitY=0.75;exitDx=0;exitDy=0;entryX=1;entryY=0.5;entryDx=0;entryDy=0;" parent="1" source="cXpkJefbk4sWb7GXNzCY-404" target="cXpkJefbk4sWb7GXNzCY-407" edge="1">
          <mxGeometry relative="1" as="geometry" />
        </mxCell>
        <mxCell id="cXpkJefbk4sWb7GXNzCY-404" value="Danh sách đội hình" style="whiteSpace=wrap;html=1;rounded=1;shadow=1;strokeWidth=1;fontSize=16;align=center;fillColor=#f5f5f5;strokeColor=#666666;" parent="1" vertex="1">
          <mxGeometry x="720" y="-529" width="125" height="80" as="geometry" />
        </mxCell>
        <mxCell id="cXpkJefbk4sWb7GXNzCY-569" style="edgeStyle=orthogonalEdgeStyle;rounded=0;orthogonalLoop=1;jettySize=auto;html=1;exitX=0;exitY=0.5;exitDx=0;exitDy=0;entryX=1;entryY=0.5;entryDx=0;entryDy=0;" parent="1" source="cXpkJefbk4sWb7GXNzCY-405" target="cXpkJefbk4sWb7GXNzCY-568" edge="1">
          <mxGeometry relative="1" as="geometry" />
        </mxCell>
        <mxCell id="cXpkJefbk4sWb7GXNzCY-405" value="Tên" style="whiteSpace=wrap;html=1;rounded=1;shadow=1;strokeWidth=1;fontSize=16;align=center;fillColor=#f5f5f5;strokeColor=#666666;" parent="1" vertex="1">
          <mxGeometry x="517.5" y="-570" width="125" height="41" as="geometry" />
        </mxCell>
        <mxCell id="cXpkJefbk4sWb7GXNzCY-406" value="Trạng thái" style="whiteSpace=wrap;html=1;rounded=1;shadow=1;strokeWidth=1;fontSize=16;align=center;fillColor=#f5f5f5;strokeColor=#666666;" parent="1" vertex="1">
          <mxGeometry x="517.5" y="-509.5" width="125" height="41" as="geometry" />
        </mxCell>
        <mxCell id="cXpkJefbk4sWb7GXNzCY-438" value="" style="edgeStyle=orthogonalEdgeStyle;rounded=0;orthogonalLoop=1;jettySize=auto;html=1;" parent="1" source="cXpkJefbk4sWb7GXNzCY-407" target="cXpkJefbk4sWb7GXNzCY-437" edge="1">
          <mxGeometry relative="1" as="geometry" />
        </mxCell>
        <mxCell id="cXpkJefbk4sWb7GXNzCY-407" value="Số áo" style="whiteSpace=wrap;html=1;rounded=1;shadow=1;strokeWidth=1;fontSize=16;align=center;fillColor=#f5f5f5;strokeColor=#666666;" parent="1" vertex="1">
          <mxGeometry x="517.5" y="-439.5" width="125" height="41" as="geometry" />
        </mxCell>
        <mxCell id="cXpkJefbk4sWb7GXNzCY-425" style="edgeStyle=orthogonalEdgeStyle;rounded=0;orthogonalLoop=1;jettySize=auto;html=1;exitX=0;exitY=0.25;exitDx=0;exitDy=0;entryX=1;entryY=0.5;entryDx=0;entryDy=0;" parent="1" source="cXpkJefbk4sWb7GXNzCY-410" target="cXpkJefbk4sWb7GXNzCY-415" edge="1">
          <mxGeometry relative="1" as="geometry" />
        </mxCell>
        <mxCell id="cXpkJefbk4sWb7GXNzCY-426" style="edgeStyle=orthogonalEdgeStyle;rounded=0;orthogonalLoop=1;jettySize=auto;html=1;exitX=0;exitY=0.75;exitDx=0;exitDy=0;entryX=1;entryY=0.5;entryDx=0;entryDy=0;" parent="1" source="cXpkJefbk4sWb7GXNzCY-410" target="cXpkJefbk4sWb7GXNzCY-413" edge="1">
          <mxGeometry relative="1" as="geometry" />
        </mxCell>
        <mxCell id="cXpkJefbk4sWb7GXNzCY-410" value="Focus" style="whiteSpace=wrap;html=1;rounded=1;shadow=1;strokeWidth=1;fontSize=16;align=center;fillColor=#f5f5f5;strokeColor=#666666;" parent="1" vertex="1">
          <mxGeometry x="720" y="-1122" width="125" height="80" as="geometry" />
        </mxCell>
        <mxCell id="cXpkJefbk4sWb7GXNzCY-427" value="" style="edgeStyle=orthogonalEdgeStyle;rounded=0;orthogonalLoop=1;jettySize=auto;html=1;" parent="1" source="cXpkJefbk4sWb7GXNzCY-413" target="cXpkJefbk4sWb7GXNzCY-421" edge="1">
          <mxGeometry relative="1" as="geometry" />
        </mxCell>
        <mxCell id="cXpkJefbk4sWb7GXNzCY-429" value="" style="edgeStyle=orthogonalEdgeStyle;rounded=0;orthogonalLoop=1;jettySize=auto;html=1;" parent="1" source="cXpkJefbk4sWb7GXNzCY-413" target="cXpkJefbk4sWb7GXNzCY-420" edge="1">
          <mxGeometry relative="1" as="geometry" />
        </mxCell>
        <mxCell id="cXpkJefbk4sWb7GXNzCY-413" value="Ko focus" style="whiteSpace=wrap;html=1;rounded=1;shadow=1;strokeWidth=1;fontSize=16;align=center;fillColor=#f5f5f5;strokeColor=#666666;" parent="1" vertex="1">
          <mxGeometry x="515" y="-1065" width="125" height="50" as="geometry" />
        </mxCell>
        <mxCell id="cXpkJefbk4sWb7GXNzCY-428" value="" style="edgeStyle=orthogonalEdgeStyle;rounded=0;orthogonalLoop=1;jettySize=auto;html=1;" parent="1" source="cXpkJefbk4sWb7GXNzCY-415" target="cXpkJefbk4sWb7GXNzCY-417" edge="1">
          <mxGeometry relative="1" as="geometry" />
        </mxCell>
        <mxCell id="cXpkJefbk4sWb7GXNzCY-415" value="Có focus" style="whiteSpace=wrap;html=1;rounded=1;shadow=1;strokeWidth=1;fontSize=16;align=center;fillColor=#f5f5f5;strokeColor=#666666;" parent="1" vertex="1">
          <mxGeometry x="515" y="-1161" width="125" height="50" as="geometry" />
        </mxCell>
        <mxCell id="cXpkJefbk4sWb7GXNzCY-416" style="edgeStyle=orthogonalEdgeStyle;rounded=0;orthogonalLoop=1;jettySize=auto;html=1;exitX=0.5;exitY=1;exitDx=0;exitDy=0;" parent="1" edge="1">
          <mxGeometry relative="1" as="geometry">
            <mxPoint x="577.5" y="-1200" as="sourcePoint" />
            <mxPoint x="577.5" y="-1200" as="targetPoint" />
          </mxGeometry>
        </mxCell>
        <mxCell id="cXpkJefbk4sWb7GXNzCY-417" value="Icon đen nền trắng" style="whiteSpace=wrap;html=1;fontSize=16;fillColor=#00CCCC;strokeColor=#666666;rounded=1;shadow=1;strokeWidth=1;" parent="1" vertex="1">
          <mxGeometry x="320" y="-1166" width="120" height="60" as="geometry" />
        </mxCell>
        <mxCell id="cXpkJefbk4sWb7GXNzCY-430" value="" style="edgeStyle=orthogonalEdgeStyle;rounded=0;orthogonalLoop=1;jettySize=auto;html=1;" parent="1" source="cXpkJefbk4sWb7GXNzCY-420" target="cXpkJefbk4sWb7GXNzCY-422" edge="1">
          <mxGeometry relative="1" as="geometry" />
        </mxCell>
        <mxCell id="cXpkJefbk4sWb7GXNzCY-431" style="edgeStyle=orthogonalEdgeStyle;rounded=0;orthogonalLoop=1;jettySize=auto;html=1;exitX=0;exitY=0.75;exitDx=0;exitDy=0;entryX=1;entryY=0.5;entryDx=0;entryDy=0;" parent="1" source="cXpkJefbk4sWb7GXNzCY-420" target="cXpkJefbk4sWb7GXNzCY-423" edge="1">
          <mxGeometry relative="1" as="geometry" />
        </mxCell>
        <mxCell id="cXpkJefbk4sWb7GXNzCY-420" value="Active" style="whiteSpace=wrap;html=1;fontSize=16;fillColor=#f5f5f5;strokeColor=#666666;rounded=1;shadow=1;strokeWidth=1;" parent="1" vertex="1">
          <mxGeometry x="320" y="-1070" width="120" height="60" as="geometry" />
        </mxCell>
        <mxCell id="cXpkJefbk4sWb7GXNzCY-421" value="Icon trắng nền đen" style="whiteSpace=wrap;html=1;fontSize=16;fillColor=#00CCCC;strokeColor=#666666;rounded=1;shadow=1;strokeWidth=1;" parent="1" vertex="1">
          <mxGeometry x="517.5" y="-940" width="120" height="60" as="geometry" />
        </mxCell>
        <mxCell id="cXpkJefbk4sWb7GXNzCY-422" value="Icon trắng nền xám" style="whiteSpace=wrap;html=1;fontSize=16;fillColor=#00CCCC;strokeColor=#666666;rounded=1;shadow=1;strokeWidth=1;" parent="1" vertex="1">
          <mxGeometry x="149.5" y="-1070" width="120" height="60" as="geometry" />
        </mxCell>
        <mxCell id="cXpkJefbk4sWb7GXNzCY-423" value="ND viền trắng" style="whiteSpace=wrap;html=1;fontSize=16;fillColor=#00CCCC;strokeColor=#666666;rounded=1;shadow=1;strokeWidth=1;" parent="1" vertex="1">
          <mxGeometry x="149.5" y="-990" width="120" height="60" as="geometry" />
        </mxCell>
        <mxCell id="cXpkJefbk4sWb7GXNzCY-437" value="mờ" style="whiteSpace=wrap;html=1;fontSize=16;fillColor=#00CCCC;strokeColor=#666666;rounded=1;shadow=1;strokeWidth=1;" parent="1" vertex="1">
          <mxGeometry x="320" y="-449" width="120" height="60" as="geometry" />
        </mxCell>
        <mxCell id="cXpkJefbk4sWb7GXNzCY-441" style="edgeStyle=orthogonalEdgeStyle;rounded=0;orthogonalLoop=1;jettySize=auto;html=1;exitX=0;exitY=0.25;exitDx=0;exitDy=0;entryX=1;entryY=0.5;entryDx=0;entryDy=0;" parent="1" source="cXpkJefbk4sWb7GXNzCY-440" target="cXpkJefbk4sWb7GXNzCY-370" edge="1">
          <mxGeometry relative="1" as="geometry" />
        </mxCell>
        <mxCell id="cXpkJefbk4sWb7GXNzCY-442" style="edgeStyle=orthogonalEdgeStyle;rounded=0;orthogonalLoop=1;jettySize=auto;html=1;exitX=0;exitY=0.5;exitDx=0;exitDy=0;entryX=1;entryY=0.5;entryDx=0;entryDy=0;" parent="1" source="cXpkJefbk4sWb7GXNzCY-440" target="cXpkJefbk4sWb7GXNzCY-371" edge="1">
          <mxGeometry relative="1" as="geometry" />
        </mxCell>
        <mxCell id="cXpkJefbk4sWb7GXNzCY-463" style="edgeStyle=orthogonalEdgeStyle;rounded=0;orthogonalLoop=1;jettySize=auto;html=1;exitX=0;exitY=0.75;exitDx=0;exitDy=0;entryX=1;entryY=0.5;entryDx=0;entryDy=0;" parent="1" source="cXpkJefbk4sWb7GXNzCY-440" target="cXpkJefbk4sWb7GXNzCY-410" edge="1">
          <mxGeometry relative="1" as="geometry">
            <Array as="points">
              <mxPoint x="950" y="-1286" />
              <mxPoint x="950" y="-1082" />
            </Array>
          </mxGeometry>
        </mxCell>
        <mxCell id="cXpkJefbk4sWb7GXNzCY-440" value="Chung (realtime)" style="whiteSpace=wrap;html=1;rounded=1;shadow=1;strokeWidth=1;fontSize=16;align=center;fillColor=#f5f5f5;strokeColor=#666666;" parent="1" vertex="1">
          <mxGeometry x="1000" y="-1316" width="200" height="40" as="geometry" />
        </mxCell>
        <mxCell id="cXpkJefbk4sWb7GXNzCY-447" style="edgeStyle=orthogonalEdgeStyle;rounded=0;orthogonalLoop=1;jettySize=auto;html=1;exitX=0.5;exitY=1;exitDx=0;exitDy=0;entryX=0.5;entryY=0;entryDx=0;entryDy=0;" parent="1" source="cXpkJefbk4sWb7GXNzCY-444" target="cXpkJefbk4sWb7GXNzCY-440" edge="1">
          <mxGeometry relative="1" as="geometry" />
        </mxCell>
        <mxCell id="cXpkJefbk4sWb7GXNzCY-464" style="edgeStyle=orthogonalEdgeStyle;rounded=0;orthogonalLoop=1;jettySize=auto;html=1;exitX=0;exitY=0.5;exitDx=0;exitDy=0;" parent="1" source="cXpkJefbk4sWb7GXNzCY-444" target="cXpkJefbk4sWb7GXNzCY-446" edge="1">
          <mxGeometry relative="1" as="geometry" />
        </mxCell>
        <mxCell id="cXpkJefbk4sWb7GXNzCY-444" value="Diễn biến" style="whiteSpace=wrap;html=1;rounded=1;shadow=1;strokeWidth=1;fontSize=16;align=center;fillColor=#f5f5f5;strokeColor=#666666;" parent="1" vertex="1">
          <mxGeometry x="1000" y="-2170" width="200" height="40" as="geometry" />
        </mxCell>
        <mxCell id="cXpkJefbk4sWb7GXNzCY-467" style="edgeStyle=orthogonalEdgeStyle;rounded=0;orthogonalLoop=1;jettySize=auto;html=1;exitX=0;exitY=0;exitDx=0;exitDy=0;entryX=1;entryY=0.5;entryDx=0;entryDy=0;" parent="1" source="cXpkJefbk4sWb7GXNzCY-446" target="cXpkJefbk4sWb7GXNzCY-448" edge="1">
          <mxGeometry relative="1" as="geometry" />
        </mxCell>
        <mxCell id="cXpkJefbk4sWb7GXNzCY-468" style="edgeStyle=orthogonalEdgeStyle;rounded=0;orthogonalLoop=1;jettySize=auto;html=1;exitX=0;exitY=0.25;exitDx=0;exitDy=0;entryX=1;entryY=0.5;entryDx=0;entryDy=0;" parent="1" source="cXpkJefbk4sWb7GXNzCY-446" target="cXpkJefbk4sWb7GXNzCY-450" edge="1">
          <mxGeometry relative="1" as="geometry" />
        </mxCell>
        <mxCell id="cXpkJefbk4sWb7GXNzCY-469" value="" style="edgeStyle=orthogonalEdgeStyle;rounded=0;orthogonalLoop=1;jettySize=auto;html=1;" parent="1" source="cXpkJefbk4sWb7GXNzCY-446" target="cXpkJefbk4sWb7GXNzCY-451" edge="1">
          <mxGeometry relative="1" as="geometry" />
        </mxCell>
        <mxCell id="cXpkJefbk4sWb7GXNzCY-470" style="edgeStyle=orthogonalEdgeStyle;rounded=0;orthogonalLoop=1;jettySize=auto;html=1;exitX=0;exitY=0.75;exitDx=0;exitDy=0;entryX=1;entryY=0.5;entryDx=0;entryDy=0;" parent="1" source="cXpkJefbk4sWb7GXNzCY-446" target="cXpkJefbk4sWb7GXNzCY-452" edge="1">
          <mxGeometry relative="1" as="geometry" />
        </mxCell>
        <mxCell id="cXpkJefbk4sWb7GXNzCY-471" style="edgeStyle=orthogonalEdgeStyle;rounded=0;orthogonalLoop=1;jettySize=auto;html=1;exitX=0;exitY=1;exitDx=0;exitDy=0;entryX=1;entryY=0.5;entryDx=0;entryDy=0;" parent="1" source="cXpkJefbk4sWb7GXNzCY-446" target="cXpkJefbk4sWb7GXNzCY-454" edge="1">
          <mxGeometry relative="1" as="geometry" />
        </mxCell>
        <mxCell id="cXpkJefbk4sWb7GXNzCY-446" value="Danh sách sự kiện (realtime)" style="whiteSpace=wrap;html=1;rounded=1;shadow=1;strokeWidth=1;fontSize=16;align=center;fillColor=#f5f5f5;strokeColor=#666666;" parent="1" vertex="1">
          <mxGeometry x="755" y="-2190" width="125" height="80" as="geometry" />
        </mxCell>
        <mxCell id="cXpkJefbk4sWb7GXNzCY-465" style="edgeStyle=orthogonalEdgeStyle;rounded=0;orthogonalLoop=1;jettySize=auto;html=1;exitX=0;exitY=0.25;exitDx=0;exitDy=0;entryX=1;entryY=0.5;entryDx=0;entryDy=0;" parent="1" source="cXpkJefbk4sWb7GXNzCY-448" target="cXpkJefbk4sWb7GXNzCY-455" edge="1">
          <mxGeometry relative="1" as="geometry" />
        </mxCell>
        <mxCell id="cXpkJefbk4sWb7GXNzCY-466" style="edgeStyle=orthogonalEdgeStyle;rounded=0;orthogonalLoop=1;jettySize=auto;html=1;exitX=0;exitY=0.75;exitDx=0;exitDy=0;entryX=1;entryY=0.5;entryDx=0;entryDy=0;" parent="1" source="cXpkJefbk4sWb7GXNzCY-448" target="cXpkJefbk4sWb7GXNzCY-456" edge="1">
          <mxGeometry relative="1" as="geometry" />
        </mxCell>
        <mxCell id="cXpkJefbk4sWb7GXNzCY-448" value="Thông tin giải" style="whiteSpace=wrap;html=1;rounded=1;shadow=1;strokeWidth=1;fontSize=16;align=center;fillColor=#f5f5f5;strokeColor=#666666;" parent="1" vertex="1">
          <mxGeometry x="515" y="-2349" width="125" height="50" as="geometry" />
        </mxCell>
        <mxCell id="cXpkJefbk4sWb7GXNzCY-472" style="edgeStyle=orthogonalEdgeStyle;rounded=0;orthogonalLoop=1;jettySize=auto;html=1;exitX=0;exitY=0.5;exitDx=0;exitDy=0;entryX=1;entryY=0.75;entryDx=0;entryDy=0;" parent="1" source="cXpkJefbk4sWb7GXNzCY-450" target="cXpkJefbk4sWb7GXNzCY-456" edge="1">
          <mxGeometry relative="1" as="geometry" />
        </mxCell>
        <mxCell id="cXpkJefbk4sWb7GXNzCY-450" value="Đội bóng" style="whiteSpace=wrap;html=1;rounded=1;shadow=1;strokeWidth=1;fontSize=16;align=center;fillColor=#f5f5f5;strokeColor=#666666;" parent="1" vertex="1">
          <mxGeometry x="515" y="-2260" width="125" height="50" as="geometry" />
        </mxCell>
        <mxCell id="cXpkJefbk4sWb7GXNzCY-451" value="Tỷ số" style="whiteSpace=wrap;html=1;rounded=1;shadow=1;strokeWidth=1;fontSize=16;align=center;fillColor=#f5f5f5;strokeColor=#666666;" parent="1" vertex="1">
          <mxGeometry x="515" y="-2175" width="125" height="50" as="geometry" />
        </mxCell>
        <mxCell id="cXpkJefbk4sWb7GXNzCY-452" value="Thời gian" style="whiteSpace=wrap;html=1;rounded=1;shadow=1;strokeWidth=1;fontSize=16;align=center;fillColor=#f5f5f5;strokeColor=#666666;" parent="1" vertex="1">
          <mxGeometry x="515" y="-2090" width="125" height="50" as="geometry" />
        </mxCell>
        <mxCell id="cXpkJefbk4sWb7GXNzCY-454" value="Nút Play" style="whiteSpace=wrap;html=1;rounded=1;shadow=1;strokeWidth=1;fontSize=16;align=center;fillColor=#f5f5f5;strokeColor=#666666;" parent="1" vertex="1">
          <mxGeometry x="515" y="-2000" width="125" height="50" as="geometry" />
        </mxCell>
        <mxCell id="cXpkJefbk4sWb7GXNzCY-455" value="Label" style="whiteSpace=wrap;html=1;fontSize=16;fillColor=#00CCCC;strokeColor=#666666;rounded=1;shadow=1;strokeWidth=1;" parent="1" vertex="1">
          <mxGeometry x="320" y="-2406.5" width="120" height="60" as="geometry" />
        </mxCell>
        <mxCell id="cXpkJefbk4sWb7GXNzCY-456" value="Icon" style="whiteSpace=wrap;html=1;fontSize=16;fillColor=#00CCCC;strokeColor=#666666;rounded=1;shadow=1;strokeWidth=1;" parent="1" vertex="1">
          <mxGeometry x="320" y="-2301.5" width="120" height="60" as="geometry" />
        </mxCell>
        <mxCell id="cXpkJefbk4sWb7GXNzCY-473" value="Không có 0 trước" style="whiteSpace=wrap;html=1;fontSize=16;fillColor=#00CCCC;strokeColor=#666666;rounded=1;shadow=1;strokeWidth=1;" parent="1" vertex="1">
          <mxGeometry x="2446.5" y="-1706" width="120" height="60" as="geometry" />
        </mxCell>
        <mxCell id="cXpkJefbk4sWb7GXNzCY-477" value="Tính cả luân lưu" style="whiteSpace=wrap;html=1;fontSize=16;fillColor=#00CCCC;strokeColor=#666666;rounded=1;shadow=1;strokeWidth=1;" parent="1" vertex="1">
          <mxGeometry x="2445.5" y="-1796" width="120" height="60" as="geometry" />
        </mxCell>
        <mxCell id="kgQNQLbI_HPiewj2uFAK-124" value="Logo" style="whiteSpace=wrap;html=1;rounded=1;shadow=1;strokeWidth=1;fontSize=16;align=center;fillColor=#f5f5f5;strokeColor=#666666;" parent="1" vertex="1">
          <mxGeometry x="2224.5" y="-1426" width="125" height="41" as="geometry" />
        </mxCell>
        <mxCell id="cXpkJefbk4sWb7GXNzCY-531" style="edgeStyle=orthogonalEdgeStyle;rounded=0;orthogonalLoop=1;jettySize=auto;html=1;exitX=0.5;exitY=1;exitDx=0;exitDy=0;entryX=0.5;entryY=0;entryDx=0;entryDy=0;" parent="1" source="cXpkJefbk4sWb7GXNzCY-502" target="cXpkJefbk4sWb7GXNzCY-328" edge="1">
          <mxGeometry relative="1" as="geometry" />
        </mxCell>
        <mxCell id="cXpkJefbk4sWb7GXNzCY-532" style="edgeStyle=orthogonalEdgeStyle;rounded=0;orthogonalLoop=1;jettySize=auto;html=1;exitX=0.5;exitY=1;exitDx=0;exitDy=0;entryX=0.5;entryY=0;entryDx=0;entryDy=0;" parent="1" source="cXpkJefbk4sWb7GXNzCY-502" target="cXpkJefbk4sWb7GXNzCY-322" edge="1">
          <mxGeometry relative="1" as="geometry" />
        </mxCell>
        <mxCell id="cXpkJefbk4sWb7GXNzCY-533" style="edgeStyle=orthogonalEdgeStyle;rounded=0;orthogonalLoop=1;jettySize=auto;html=1;exitX=0.5;exitY=1;exitDx=0;exitDy=0;entryX=0.5;entryY=0;entryDx=0;entryDy=0;" parent="1" source="cXpkJefbk4sWb7GXNzCY-502" target="cXpkJefbk4sWb7GXNzCY-325" edge="1">
          <mxGeometry relative="1" as="geometry" />
        </mxCell>
        <mxCell id="cXpkJefbk4sWb7GXNzCY-534" value="Có" style="edgeLabel;html=1;align=center;verticalAlign=middle;resizable=0;points=[];" parent="cXpkJefbk4sWb7GXNzCY-533" vertex="1" connectable="0">
          <mxGeometry x="-0.9468" y="-2" relative="1" as="geometry">
            <mxPoint as="offset" />
          </mxGeometry>
        </mxCell>
        <mxCell id="cXpkJefbk4sWb7GXNzCY-539" style="edgeStyle=orthogonalEdgeStyle;rounded=0;orthogonalLoop=1;jettySize=auto;html=1;exitX=0;exitY=0.5;exitDx=0;exitDy=0;" parent="1" source="cXpkJefbk4sWb7GXNzCY-502" target="cXpkJefbk4sWb7GXNzCY-538" edge="1">
          <mxGeometry relative="1" as="geometry" />
        </mxCell>
        <mxCell id="cXpkJefbk4sWb7GXNzCY-540" value="Không" style="edgeLabel;html=1;align=center;verticalAlign=middle;resizable=0;points=[];" parent="cXpkJefbk4sWb7GXNzCY-539" vertex="1" connectable="0">
          <mxGeometry x="-0.1765" y="-1" relative="1" as="geometry">
            <mxPoint as="offset" />
          </mxGeometry>
        </mxCell>
        <mxCell id="cXpkJefbk4sWb7GXNzCY-502" value="Dữ liệu" style="rhombus;whiteSpace=wrap;html=1;" parent="1" vertex="1">
          <mxGeometry x="280" y="1280" width="80" height="80" as="geometry" />
        </mxCell>
        <mxCell id="cXpkJefbk4sWb7GXNzCY-561" style="edgeStyle=orthogonalEdgeStyle;rounded=0;orthogonalLoop=1;jettySize=auto;html=1;exitX=0.25;exitY=1;exitDx=0;exitDy=0;entryX=0.5;entryY=0;entryDx=0;entryDy=0;" parent="1" source="cXpkJefbk4sWb7GXNzCY-507" target="cXpkJefbk4sWb7GXNzCY-558" edge="1">
          <mxGeometry relative="1" as="geometry" />
        </mxCell>
        <mxCell id="cXpkJefbk4sWb7GXNzCY-507" value="Diễn biến" style="whiteSpace=wrap;html=1;rounded=1;shadow=1;strokeWidth=1;fontSize=16;align=center;fillColor=#f5f5f5;strokeColor=#666666;" parent="1" vertex="1">
          <mxGeometry x="2280" y="1200" width="200" height="40" as="geometry" />
        </mxCell>
        <mxCell id="cXpkJefbk4sWb7GXNzCY-511" value="Scoreboard" style="whiteSpace=wrap;html=1;fontSize=16;fillColor=#f5f5f5;strokeColor=#666666;rounded=1;shadow=1;strokeWidth=1;arcSize=50;" parent="1" vertex="1">
          <mxGeometry x="1230" y="1330" width="120" height="60" as="geometry" />
        </mxCell>
        <mxCell id="cXpkJefbk4sWb7GXNzCY-542" style="edgeStyle=orthogonalEdgeStyle;rounded=0;orthogonalLoop=1;jettySize=auto;html=1;exitX=1;exitY=0.5;exitDx=0;exitDy=0;" parent="1" source="cXpkJefbk4sWb7GXNzCY-514" target="cXpkJefbk4sWb7GXNzCY-511" edge="1">
          <mxGeometry relative="1" as="geometry" />
        </mxCell>
        <mxCell id="cXpkJefbk4sWb7GXNzCY-549" value="Không" style="edgeLabel;html=1;align=center;verticalAlign=middle;resizable=0;points=[];" parent="cXpkJefbk4sWb7GXNzCY-542" vertex="1" connectable="0">
          <mxGeometry x="-0.4292" y="-2" relative="1" as="geometry">
            <mxPoint as="offset" />
          </mxGeometry>
        </mxCell>
        <mxCell id="cXpkJefbk4sWb7GXNzCY-543" style="edgeStyle=orthogonalEdgeStyle;rounded=0;orthogonalLoop=1;jettySize=auto;html=1;exitX=0.5;exitY=1;exitDx=0;exitDy=0;entryX=0.5;entryY=0;entryDx=0;entryDy=0;" parent="1" source="cXpkJefbk4sWb7GXNzCY-514" target="cXpkJefbk4sWb7GXNzCY-313" edge="1">
          <mxGeometry relative="1" as="geometry" />
        </mxCell>
        <mxCell id="cXpkJefbk4sWb7GXNzCY-544" style="edgeStyle=orthogonalEdgeStyle;rounded=0;orthogonalLoop=1;jettySize=auto;html=1;exitX=0.5;exitY=1;exitDx=0;exitDy=0;entryX=0.5;entryY=0;entryDx=0;entryDy=0;" parent="1" source="cXpkJefbk4sWb7GXNzCY-514" target="cXpkJefbk4sWb7GXNzCY-316" edge="1">
          <mxGeometry relative="1" as="geometry" />
        </mxCell>
        <mxCell id="cXpkJefbk4sWb7GXNzCY-550" value="Có" style="edgeLabel;html=1;align=center;verticalAlign=middle;resizable=0;points=[];" parent="cXpkJefbk4sWb7GXNzCY-544" vertex="1" connectable="0">
          <mxGeometry x="-0.7544" y="1" relative="1" as="geometry">
            <mxPoint as="offset" />
          </mxGeometry>
        </mxCell>
        <mxCell id="cXpkJefbk4sWb7GXNzCY-514" value="Dữ liệu" style="rhombus;whiteSpace=wrap;html=1;" parent="1" vertex="1">
          <mxGeometry x="1070" y="1320" width="80" height="80" as="geometry" />
        </mxCell>
        <mxCell id="cXpkJefbk4sWb7GXNzCY-538" value="Trống" style="whiteSpace=wrap;html=1;rounded=1;shadow=1;strokeWidth=1;fontSize=16;align=center;fillColor=#f5f5f5;strokeColor=#666666;" parent="1" vertex="1">
          <mxGeometry y="1300" width="200" height="40" as="geometry" />
        </mxCell>
        <mxCell id="cXpkJefbk4sWb7GXNzCY-545" value="Scoreboard" style="whiteSpace=wrap;html=1;fontSize=16;fillColor=#f5f5f5;strokeColor=#666666;rounded=1;shadow=1;strokeWidth=1;arcSize=50;" parent="1" vertex="1">
          <mxGeometry x="1690" y="1330" width="120" height="60" as="geometry" />
        </mxCell>
        <mxCell id="cXpkJefbk4sWb7GXNzCY-546" style="edgeStyle=orthogonalEdgeStyle;rounded=0;orthogonalLoop=1;jettySize=auto;html=1;exitX=1;exitY=0.5;exitDx=0;exitDy=0;" parent="1" source="cXpkJefbk4sWb7GXNzCY-547" target="cXpkJefbk4sWb7GXNzCY-545" edge="1">
          <mxGeometry relative="1" as="geometry" />
        </mxCell>
        <mxCell id="cXpkJefbk4sWb7GXNzCY-554" value="Không" style="edgeLabel;html=1;align=center;verticalAlign=middle;resizable=0;points=[];" parent="cXpkJefbk4sWb7GXNzCY-546" vertex="1" connectable="0">
          <mxGeometry x="-0.2208" y="-3" relative="1" as="geometry">
            <mxPoint as="offset" />
          </mxGeometry>
        </mxCell>
        <mxCell id="cXpkJefbk4sWb7GXNzCY-551" style="edgeStyle=orthogonalEdgeStyle;rounded=0;orthogonalLoop=1;jettySize=auto;html=1;exitX=0.5;exitY=1;exitDx=0;exitDy=0;entryX=0.5;entryY=0;entryDx=0;entryDy=0;" parent="1" source="cXpkJefbk4sWb7GXNzCY-547" target="cXpkJefbk4sWb7GXNzCY-284" edge="1">
          <mxGeometry relative="1" as="geometry" />
        </mxCell>
        <mxCell id="cXpkJefbk4sWb7GXNzCY-552" style="edgeStyle=orthogonalEdgeStyle;rounded=0;orthogonalLoop=1;jettySize=auto;html=1;exitX=0.5;exitY=1;exitDx=0;exitDy=0;entryX=0.5;entryY=0;entryDx=0;entryDy=0;" parent="1" source="cXpkJefbk4sWb7GXNzCY-547" target="cXpkJefbk4sWb7GXNzCY-287" edge="1">
          <mxGeometry relative="1" as="geometry" />
        </mxCell>
        <mxCell id="cXpkJefbk4sWb7GXNzCY-553" value="Có" style="edgeLabel;html=1;align=center;verticalAlign=middle;resizable=0;points=[];" parent="cXpkJefbk4sWb7GXNzCY-552" vertex="1" connectable="0">
          <mxGeometry x="-0.8851" relative="1" as="geometry">
            <mxPoint as="offset" />
          </mxGeometry>
        </mxCell>
        <mxCell id="cXpkJefbk4sWb7GXNzCY-547" value="Dữ liệu" style="rhombus;whiteSpace=wrap;html=1;" parent="1" vertex="1">
          <mxGeometry x="1530" y="1320" width="80" height="80" as="geometry" />
        </mxCell>
        <mxCell id="cXpkJefbk4sWb7GXNzCY-555" value="Scoreboard" style="whiteSpace=wrap;html=1;fontSize=16;fillColor=#f5f5f5;strokeColor=#666666;rounded=1;shadow=1;strokeWidth=1;arcSize=50;" parent="1" vertex="1">
          <mxGeometry x="2450" y="1330" width="120" height="60" as="geometry" />
        </mxCell>
        <mxCell id="cXpkJefbk4sWb7GXNzCY-556" style="edgeStyle=orthogonalEdgeStyle;rounded=0;orthogonalLoop=1;jettySize=auto;html=1;exitX=1;exitY=0.5;exitDx=0;exitDy=0;" parent="1" source="cXpkJefbk4sWb7GXNzCY-558" target="cXpkJefbk4sWb7GXNzCY-555" edge="1">
          <mxGeometry relative="1" as="geometry" />
        </mxCell>
        <mxCell id="cXpkJefbk4sWb7GXNzCY-557" value="Không" style="edgeLabel;html=1;align=center;verticalAlign=middle;resizable=0;points=[];" parent="cXpkJefbk4sWb7GXNzCY-556" vertex="1" connectable="0">
          <mxGeometry x="-0.2208" y="-3" relative="1" as="geometry">
            <mxPoint as="offset" />
          </mxGeometry>
        </mxCell>
        <mxCell id="cXpkJefbk4sWb7GXNzCY-562" style="edgeStyle=orthogonalEdgeStyle;rounded=0;orthogonalLoop=1;jettySize=auto;html=1;exitX=0.5;exitY=1;exitDx=0;exitDy=0;entryX=0.5;entryY=0;entryDx=0;entryDy=0;" parent="1" source="cXpkJefbk4sWb7GXNzCY-558" target="cXpkJefbk4sWb7GXNzCY-236" edge="1">
          <mxGeometry relative="1" as="geometry" />
        </mxCell>
        <mxCell id="cXpkJefbk4sWb7GXNzCY-563" style="edgeStyle=orthogonalEdgeStyle;rounded=0;orthogonalLoop=1;jettySize=auto;html=1;exitX=0.5;exitY=1;exitDx=0;exitDy=0;entryX=0.5;entryY=0;entryDx=0;entryDy=0;" parent="1" source="cXpkJefbk4sWb7GXNzCY-558" target="cXpkJefbk4sWb7GXNzCY-233" edge="1">
          <mxGeometry relative="1" as="geometry" />
        </mxCell>
        <mxCell id="cXpkJefbk4sWb7GXNzCY-564" style="edgeStyle=orthogonalEdgeStyle;rounded=0;orthogonalLoop=1;jettySize=auto;html=1;exitX=0.5;exitY=1;exitDx=0;exitDy=0;entryX=0.5;entryY=0;entryDx=0;entryDy=0;" parent="1" source="cXpkJefbk4sWb7GXNzCY-558" target="cXpkJefbk4sWb7GXNzCY-239" edge="1">
          <mxGeometry relative="1" as="geometry" />
        </mxCell>
        <mxCell id="cXpkJefbk4sWb7GXNzCY-565" style="edgeStyle=orthogonalEdgeStyle;rounded=0;orthogonalLoop=1;jettySize=auto;html=1;exitX=0.5;exitY=1;exitDx=0;exitDy=0;entryX=0.5;entryY=0;entryDx=0;entryDy=0;" parent="1" source="cXpkJefbk4sWb7GXNzCY-558" target="cXpkJefbk4sWb7GXNzCY-222" edge="1">
          <mxGeometry relative="1" as="geometry" />
        </mxCell>
        <mxCell id="cXpkJefbk4sWb7GXNzCY-566" value="Có" style="edgeLabel;html=1;align=center;verticalAlign=middle;resizable=0;points=[];" parent="cXpkJefbk4sWb7GXNzCY-565" vertex="1" connectable="0">
          <mxGeometry x="-0.8736" relative="1" as="geometry">
            <mxPoint as="offset" />
          </mxGeometry>
        </mxCell>
        <mxCell id="cXpkJefbk4sWb7GXNzCY-558" value="Dữ liệu" style="rhombus;whiteSpace=wrap;html=1;" parent="1" vertex="1">
          <mxGeometry x="2290" y="1320" width="80" height="80" as="geometry" />
        </mxCell>
        <mxCell id="cXpkJefbk4sWb7GXNzCY-568" value="Tối đa 1 line" style="whiteSpace=wrap;html=1;fontSize=16;fillColor=#00CCCC;strokeColor=#666666;rounded=1;shadow=1;strokeWidth=1;" parent="1" vertex="1">
          <mxGeometry x="320" y="-579.5" width="120" height="60" as="geometry" />
        </mxCell>
        <mxCell id="cXpkJefbk4sWb7GXNzCY-570" value="mờ" style="whiteSpace=wrap;html=1;fontSize=16;fillColor=#00CCCC;strokeColor=#666666;rounded=1;shadow=1;strokeWidth=1;" parent="1" vertex="1">
          <mxGeometry x="2670" y="-2030" width="120" height="60" as="geometry" />
        </mxCell>
        <mxCell id="cXpkJefbk4sWb7GXNzCY-571" value="Quá 1 line xuống dòng" style="whiteSpace=wrap;html=1;fontSize=16;fillColor=#00CCCC;strokeColor=#666666;rounded=1;shadow=1;strokeWidth=1;" parent="1" vertex="1">
          <mxGeometry x="2670" y="-1870" width="120" height="60" as="geometry" />
        </mxCell>
        <mxCell id="cXpkJefbk4sWb7GXNzCY-577" style="edgeStyle=orthogonalEdgeStyle;rounded=0;orthogonalLoop=1;jettySize=auto;html=1;exitX=1;exitY=0.5;exitDx=0;exitDy=0;entryX=0;entryY=0.5;entryDx=0;entryDy=0;" parent="1" source="cXpkJefbk4sWb7GXNzCY-574" target="cXpkJefbk4sWb7GXNzCY-50" edge="1">
          <mxGeometry relative="1" as="geometry" />
        </mxCell>
        <mxCell id="cXpkJefbk4sWb7GXNzCY-574" value="Playerback" style="whiteSpace=wrap;html=1;fontSize=16;fillColor=#f5f5f5;strokeColor=#666666;rounded=1;shadow=1;strokeWidth=1;arcSize=50;" parent="1" vertex="1">
          <mxGeometry x="1821" y="892.5" width="120" height="60" as="geometry" />
        </mxCell>
        <mxCell id="cXpkJefbk4sWb7GXNzCY-581" value="Mở Playback/Livechat" style="whiteSpace=wrap;html=1;rounded=1;shadow=1;strokeWidth=1;fontSize=16;align=center;fillColor=#f5f5f5;strokeColor=#666666;" parent="1" vertex="1">
          <mxGeometry x="2300" y="960" width="200" height="40" as="geometry" />
        </mxCell>
        <mxCell id="mxKlV8JhnhSBez3Am2Ye-3" value="" style="edgeStyle=orthogonalEdgeStyle;rounded=0;orthogonalLoop=1;jettySize=auto;html=1;" edge="1" parent="1" source="mxKlV8JhnhSBez3Am2Ye-2" target="kgQNQLbI_HPiewj2uFAK-74">
          <mxGeometry relative="1" as="geometry" />
        </mxCell>
        <mxCell id="mxKlV8JhnhSBez3Am2Ye-2" value="Giao diện" style="whiteSpace=wrap;html=1;rounded=1;shadow=1;strokeWidth=1;fontSize=16;align=center;fillColor=#f5f5f5;strokeColor=#666666;" vertex="1" parent="1">
          <mxGeometry x="1280" y="80" width="200" height="40" as="geometry" />
        </mxCell>
      </root>
    </mxGraphModel>
  </diagram>
</mxfile>
